<?xml version="1.0" encoding="UTF-8"?>
<svg xmlns="http://www.w3.org/2000/svg" xmlns:xlink="http://www.w3.org/1999/xlink" width="405.333333" height="96" viewBox="0 0 405.333333 96" version="1.1">
<g id="surface1">
<path style=" stroke:none;fill-rule:nonzero;fill:rgb(69.803923%,85.09804%,100%);fill-opacity:1;" d="M 82.332031 44.265625 L 150.863281 44.265625 L 150.863281 1.332031 L 82.332031 1.332031 Z M 82.332031 44.265625 "/>
<path style="fill:none;stroke-width:1;stroke-linecap:round;stroke-linejoin:round;stroke:rgb(0%,0%,0%);stroke-opacity:1;stroke-miterlimit:10;" d="M 123.749023 58.999023 L 175.147461 58.999023 L 175.147461 91.199219 L 123.749023 91.199219 Z M 123.749023 58.999023 " transform="matrix(1.333333,0,0,1.333333,-82.666667,-77.333333)"/>
<path style=" stroke:none;fill-rule:nonzero;fill:rgb(0%,0%,0%);fill-opacity:1;" d="M 102.226562 26.113281 C 101.371094 26.550781 100.371094 26.882812 99.246094 27.132812 L 99.351562 27.988281 C 100.433594 27.714844 101.390625 27.363281 102.226562 26.925781 Z M 100.996094 17.632812 C 100.558594 19.027344 100.039062 20.257812 99.433594 21.339844 C 99.351562 21.488281 99.226562 21.589844 99.101562 21.652344 L 99.308594 22.425781 C 99.953125 22.320312 100.578125 22.214844 101.226562 22.089844 C 100.601562 23.195312 100.078125 23.964844 99.664062 24.425781 C 99.558594 24.527344 99.414062 24.613281 99.265625 24.675781 L 99.496094 25.445312 C 100.476562 25.300781 101.496094 25.050781 102.578125 24.695312 L 102.578125 23.925781 C 101.890625 24.175781 101.203125 24.363281 100.515625 24.507812 C 101.164062 23.695312 101.996094 22.320312 102.996094 20.382812 L 102.246094 20.089844 C 102.039062 20.527344 101.808594 20.945312 101.621094 21.320312 C 101.121094 21.425781 100.601562 21.507812 100.078125 21.589844 C 100.664062 20.695312 101.246094 19.464844 101.808594 17.945312 Z M 108.851562 28.632812 C 109.390625 28.632812 109.664062 28.339844 109.664062 27.800781 L 109.664062 22.964844 L 104.183594 22.964844 L 104.183594 28.675781 L 104.890625 28.675781 L 104.890625 26.007812 L 105.828125 26.007812 L 105.828125 28.464844 L 106.476562 28.464844 L 106.476562 26.007812 L 107.351562 26.007812 L 107.351562 28.464844 L 107.976562 28.464844 L 107.976562 26.007812 L 108.953125 26.007812 L 108.953125 27.613281 C 108.953125 27.863281 108.828125 27.988281 108.621094 27.988281 L 108.140625 27.964844 L 108.328125 28.632812 Z M 104.890625 25.277344 L 104.890625 23.714844 L 105.828125 23.714844 L 105.828125 25.277344 Z M 106.476562 23.714844 L 107.351562 23.714844 L 107.351562 25.277344 L 106.476562 25.277344 Z M 107.976562 23.714844 L 108.953125 23.714844 L 108.953125 25.277344 L 107.976562 25.277344 Z M 108.828125 19.632812 L 108.828125 21.175781 L 104.140625 21.175781 L 104.140625 19.632812 Z M 104.140625 21.925781 L 109.621094 21.925781 L 109.621094 18.882812 L 106.914062 18.882812 C 106.765625 18.402344 106.621094 17.964844 106.453125 17.613281 L 105.558594 17.738281 C 105.746094 18.089844 105.914062 18.464844 106.078125 18.882812 L 103.351562 18.882812 L 103.351562 21.800781 C 103.328125 24.363281 102.851562 26.464844 101.890625 28.113281 L 102.515625 28.652344 C 103.558594 26.777344 104.101562 24.527344 104.140625 21.925781 Z M 104.140625 21.925781 "/>
<path style=" stroke:none;fill-rule:nonzero;fill:rgb(0%,0%,0%);fill-opacity:1;" d="M 115.140625 21.882812 L 112.933594 21.882812 C 113.246094 21.027344 113.476562 20.132812 113.640625 19.175781 L 115.453125 19.175781 L 115.453125 18.339844 L 111.351562 18.339844 L 111.351562 19.175781 L 112.828125 19.175781 C 112.539062 20.964844 111.933594 22.550781 111.015625 23.945312 L 111.453125 24.652344 C 111.746094 24.238281 111.996094 23.820312 112.246094 23.382812 L 112.246094 28.277344 L 113.058594 28.277344 L 113.058594 27.363281 L 114.351562 27.363281 L 114.351562 28.050781 L 115.140625 28.050781 Z M 113.058594 26.570312 L 113.058594 22.675781 L 114.351562 22.675781 L 114.351562 26.570312 Z M 116.746094 19.820312 L 116.101562 23.714844 L 120.953125 23.714844 C 120.953125 25.632812 120.851562 26.800781 120.664062 27.195312 C 120.496094 27.589844 119.933594 27.800781 119.015625 27.800781 C 118.789062 27.800781 118.433594 27.757812 117.890625 27.714844 L 118.140625 28.550781 C 118.515625 28.589844 118.871094 28.589844 119.226562 28.589844 C 120.265625 28.589844 120.953125 28.363281 121.289062 27.925781 C 121.601562 27.488281 121.765625 25.820312 121.765625 22.902344 L 120.496094 22.902344 L 121.164062 18.175781 L 115.996094 18.175781 L 115.996094 18.988281 L 120.226562 18.988281 L 119.621094 22.902344 L 117.078125 22.902344 L 117.601562 19.882812 Z M 115.746094 25.238281 L 115.746094 26.050781 L 120.121094 26.050781 L 120.121094 25.238281 Z M 115.746094 25.238281 "/>
<path style=" stroke:none;fill-rule:nonzero;fill:rgb(0%,0%,0%);fill-opacity:1;" d="M 124.289062 18.113281 L 124.289062 21.027344 L 127.933594 21.027344 L 127.933594 18.113281 Z M 127.140625 20.300781 L 125.058594 20.300781 L 125.058594 18.863281 L 127.140625 18.863281 Z M 129.265625 18.113281 L 129.265625 21.027344 L 132.996094 21.027344 L 132.996094 18.113281 Z M 132.226562 20.300781 L 130.058594 20.300781 L 130.058594 18.863281 L 132.226562 18.863281 Z M 123.308594 22.238281 L 123.308594 23.007812 L 126.621094 23.007812 C 125.789062 23.714844 124.601562 24.320312 123.058594 24.757812 L 123.453125 25.464844 C 123.808594 25.363281 124.121094 25.257812 124.453125 25.132812 L 124.453125 28.675781 L 125.203125 28.675781 L 125.203125 28.152344 L 127.246094 28.152344 L 127.246094 28.675781 L 128.015625 28.675781 L 128.015625 24.902344 L 125.015625 24.902344 C 126.140625 24.402344 127.039062 23.777344 127.703125 23.007812 L 129.746094 23.007812 C 130.351562 23.738281 131.226562 24.363281 132.371094 24.902344 L 129.183594 24.902344 L 129.183594 28.675781 L 129.953125 28.675781 L 129.953125 28.152344 L 132.183594 28.152344 L 132.183594 28.675781 L 132.953125 28.675781 L 132.953125 25.152344 C 133.226562 25.238281 133.496094 25.363281 133.789062 25.445312 L 134.140625 24.714844 C 132.601562 24.300781 131.433594 23.714844 130.640625 23.007812 L 133.890625 23.007812 L 133.890625 22.238281 L 132.246094 22.238281 C 132.039062 21.863281 131.828125 21.507812 131.578125 21.175781 L 130.851562 21.425781 C 131.039062 21.652344 131.226562 21.925781 131.390625 22.238281 L 128.289062 22.238281 C 128.453125 21.945312 128.621094 21.652344 128.726562 21.339844 L 127.914062 21.257812 C 127.765625 21.589844 127.578125 21.925781 127.351562 22.238281 Z M 125.203125 27.425781 L 125.203125 25.613281 L 127.246094 25.613281 L 127.246094 27.425781 Z M 129.953125 27.425781 L 129.953125 25.613281 L 132.183594 25.613281 L 132.183594 27.425781 Z M 129.953125 27.425781 "/>
<path style=" stroke:none;fill-rule:nonzero;fill:rgb(69.803923%,85.09804%,100%);fill-opacity:1;" d="M 254.734375 44.265625 L 323.265625 44.265625 L 323.265625 1.332031 L 254.734375 1.332031 Z M 254.734375 44.265625 "/>
<path style="fill:none;stroke-width:1;stroke-linecap:round;stroke-linejoin:round;stroke:rgb(0%,0%,0%);stroke-opacity:1;stroke-miterlimit:10;" d="M 253.050781 58.999023 L 304.449219 58.999023 L 304.449219 91.199219 L 253.050781 91.199219 Z M 253.050781 58.999023 " transform="matrix(1.333333,0,0,1.333333,-82.666667,-77.333333)"/>
<path style=" stroke:none;fill-rule:nonzero;fill:rgb(0%,0%,0%);fill-opacity:1;" d="M 278.125 24.113281 L 279.542969 24.113281 L 279.542969 25.570312 L 276.9375 25.570312 L 276.9375 26.339844 L 279.542969 26.339844 L 279.542969 28.695312 L 280.375 28.695312 L 280.375 26.339844 L 282.417969 26.339844 L 282.417969 25.570312 L 280.375 25.570312 L 280.375 24.113281 L 282.167969 24.113281 L 282.167969 23.320312 L 280.375 23.320312 L 280.375 22.214844 L 279.542969 22.214844 L 279.542969 23.320312 L 278.4375 23.320312 C 278.519531 23.050781 278.582031 22.757812 278.644531 22.425781 L 277.9375 22.300781 C 277.75 23.257812 277.417969 24.007812 276.875 24.589844 L 277.375 25.195312 C 277.667969 24.882812 277.917969 24.527344 278.125 24.113281 Z M 278.625 19.152344 C 278.542969 19.550781 278.394531 19.902344 278.230469 20.214844 C 277.957031 20.632812 277.542969 21.027344 277.019531 21.339844 L 277.519531 21.988281 C 278.125 21.589844 278.605469 21.113281 278.917969 20.613281 C 279.144531 20.195312 279.3125 19.695312 279.4375 19.152344 L 281.207031 19.152344 C 281.167969 20.007812 281.125 20.550781 281.0625 20.757812 C 280.980469 20.964844 280.769531 21.070312 280.4375 21.089844 C 280.144531 21.070312 279.8125 21.050781 279.394531 21.027344 L 279.605469 21.738281 C 279.980469 21.757812 280.332031 21.800781 280.605469 21.800781 C 281.125 21.800781 281.480469 21.613281 281.707031 21.320312 C 281.917969 20.988281 282.019531 20.007812 282.019531 18.382812 L 277.019531 18.382812 L 277.019531 19.152344 Z M 272.957031 23.488281 L 274.042969 23.488281 L 274.042969 25.050781 L 272.9375 25.050781 C 272.9375 24.964844 272.957031 24.882812 272.957031 24.777344 Z M 272.917969 25.777344 L 274.042969 25.777344 L 274.042969 28.507812 L 274.75 28.507812 L 274.75 25.777344 L 275.855469 25.777344 L 275.855469 27.445312 C 275.855469 27.738281 275.730469 27.902344 275.457031 27.902344 C 275.269531 27.902344 275.0625 27.882812 274.832031 27.839844 L 275.042969 28.570312 L 275.707031 28.570312 C 276.292969 28.570312 276.582031 28.277344 276.582031 27.714844 L 276.582031 20.507812 L 275.144531 20.507812 C 275.417969 20.152344 275.6875 19.695312 275.957031 19.152344 L 275.957031 18.570312 L 273.8125 18.570312 C 273.917969 18.320312 274.019531 18.050781 274.125 17.800781 L 273.332031 17.613281 C 272.875 18.863281 272.292969 19.863281 271.5625 20.632812 L 272.082031 21.277344 C 272.125 21.214844 272.167969 21.195312 272.207031 21.132812 L 272.207031 24.820312 C 272.207031 26.195312 271.957031 27.339844 271.5 28.214844 L 272.082031 28.757812 C 272.519531 27.964844 272.792969 26.964844 272.917969 25.777344 Z M 274.269531 20.507812 L 272.707031 20.507812 C 272.980469 20.132812 273.25 19.714844 273.480469 19.277344 L 275.042969 19.277344 C 274.769531 19.738281 274.519531 20.152344 274.269531 20.507812 Z M 275.855469 25.050781 L 274.75 25.050781 L 274.75 23.488281 L 275.855469 23.488281 Z M 275.855469 22.757812 L 274.75 22.757812 L 274.75 21.257812 L 275.855469 21.257812 Z M 274.042969 21.257812 L 274.042969 22.757812 L 272.957031 22.757812 L 272.957031 21.257812 Z M 274.042969 21.257812 "/>
<path style=" stroke:none;fill-rule:nonzero;fill:rgb(0%,0%,0%);fill-opacity:1;" d="M 287.542969 21.882812 L 285.332031 21.882812 C 285.644531 21.027344 285.875 20.132812 286.042969 19.175781 L 287.855469 19.175781 L 287.855469 18.339844 L 283.75 18.339844 L 283.75 19.175781 L 285.230469 19.175781 C 284.9375 20.964844 284.332031 22.550781 283.417969 23.945312 L 283.855469 24.652344 C 284.144531 24.238281 284.394531 23.820312 284.644531 23.382812 L 284.644531 28.277344 L 285.457031 28.277344 L 285.457031 27.363281 L 286.75 27.363281 L 286.75 28.050781 L 287.542969 28.050781 Z M 285.457031 26.570312 L 285.457031 22.675781 L 286.75 22.675781 L 286.75 26.570312 Z M 289.144531 19.820312 L 288.5 23.714844 L 293.355469 23.714844 C 293.355469 25.632812 293.25 26.800781 293.0625 27.195312 C 292.894531 27.589844 292.332031 27.800781 291.417969 27.800781 C 291.1875 27.800781 290.832031 27.757812 290.292969 27.714844 L 290.542969 28.550781 C 290.917969 28.589844 291.269531 28.589844 291.625 28.589844 C 292.667969 28.589844 293.355469 28.363281 293.6875 27.925781 C 294 27.488281 294.167969 25.820312 294.167969 22.902344 L 292.894531 22.902344 L 293.5625 18.175781 L 288.394531 18.175781 L 288.394531 18.988281 L 292.625 18.988281 L 292.019531 22.902344 L 289.480469 22.902344 L 290 19.882812 Z M 288.144531 25.238281 L 288.144531 26.050781 L 292.519531 26.050781 L 292.519531 25.238281 Z M 288.144531 25.238281 "/>
<path style=" stroke:none;fill-rule:nonzero;fill:rgb(0%,0%,0%);fill-opacity:1;" d="M 296.6875 18.113281 L 296.6875 21.027344 L 300.332031 21.027344 L 300.332031 18.113281 Z M 299.542969 20.300781 L 297.457031 20.300781 L 297.457031 18.863281 L 299.542969 18.863281 Z M 301.667969 18.113281 L 301.667969 21.027344 L 305.394531 21.027344 L 305.394531 18.113281 Z M 304.625 20.300781 L 302.457031 20.300781 L 302.457031 18.863281 L 304.625 18.863281 Z M 295.707031 22.238281 L 295.707031 23.007812 L 299.019531 23.007812 C 298.1875 23.714844 297 24.320312 295.457031 24.757812 L 295.855469 25.464844 C 296.207031 25.363281 296.519531 25.257812 296.855469 25.132812 L 296.855469 28.675781 L 297.605469 28.675781 L 297.605469 28.152344 L 299.644531 28.152344 L 299.644531 28.675781 L 300.417969 28.675781 L 300.417969 24.902344 L 297.417969 24.902344 C 298.542969 24.402344 299.4375 23.777344 300.105469 23.007812 L 302.144531 23.007812 C 302.75 23.738281 303.625 24.363281 304.769531 24.902344 L 301.582031 24.902344 L 301.582031 28.675781 L 302.355469 28.675781 L 302.355469 28.152344 L 304.582031 28.152344 L 304.582031 28.675781 L 305.355469 28.675781 L 305.355469 25.152344 C 305.625 25.238281 305.894531 25.363281 306.1875 25.445312 L 306.542969 24.714844 C 305 24.300781 303.832031 23.714844 303.042969 23.007812 L 306.292969 23.007812 L 306.292969 22.238281 L 304.644531 22.238281 C 304.4375 21.863281 304.230469 21.507812 303.980469 21.175781 L 303.25 21.425781 C 303.4375 21.652344 303.625 21.925781 303.792969 22.238281 L 300.6875 22.238281 C 300.855469 21.945312 301.019531 21.652344 301.125 21.339844 L 300.3125 21.257812 C 300.167969 21.589844 299.980469 21.925781 299.75 22.238281 Z M 297.605469 27.425781 L 297.605469 25.613281 L 299.644531 25.613281 L 299.644531 27.425781 Z M 302.355469 27.425781 L 302.355469 25.613281 L 304.582031 25.613281 L 304.582031 27.425781 Z M 302.355469 27.425781 "/>
<path style="fill:none;stroke-width:1;stroke-linecap:round;stroke-linejoin:round;stroke:rgb(0%,0%,0%);stroke-opacity:1;stroke-miterlimit:10;" d="M 175.147461 75.100586 L 186.801758 75.100586 " transform="matrix(1.333333,0,0,1.333333,-82.666667,-77.333333)"/>
<path style="fill:none;stroke-width:1;stroke-linecap:butt;stroke-linejoin:miter;stroke:rgb(0%,0%,0%);stroke-opacity:1;stroke-miterlimit:10;" d="M 190.800781 75.100586 L 186.801758 75.100586 M 186.801758 73.600586 L 190.800781 75.100586 L 186.801758 76.600586 " transform="matrix(1.333333,0,0,1.333333,-82.666667,-77.333333)"/>
<path style="fill:none;stroke-width:1;stroke-linecap:round;stroke-linejoin:round;stroke:rgb(0%,0%,0%);stroke-opacity:1;stroke-miterlimit:10;" d="M 106.200195 75.100586 L 117.851562 75.100586 " transform="matrix(1.333333,0,0,1.333333,-82.666667,-77.333333)"/>
<path style="fill:none;stroke-width:1;stroke-linecap:butt;stroke-linejoin:miter;stroke:rgb(0%,0%,0%);stroke-opacity:1;stroke-miterlimit:10;" d="M 121.850586 75.100586 L 117.851562 75.100586 M 117.851562 73.600586 L 121.850586 75.100586 L 117.851562 76.600586 " transform="matrix(1.333333,0,0,1.333333,-82.666667,-77.333333)"/>
<path style="fill:none;stroke-width:1;stroke-linecap:round;stroke-linejoin:round;stroke:rgb(0%,0%,0%);stroke-opacity:1;stroke-miterlimit:10;" d="M 304.449219 75.100586 L 316.100586 75.100586 " transform="matrix(1.333333,0,0,1.333333,-82.666667,-77.333333)"/>
<path style="fill:none;stroke-width:1;stroke-linecap:butt;stroke-linejoin:miter;stroke:rgb(0%,0%,0%);stroke-opacity:1;stroke-miterlimit:10;" d="M 320.102539 75.100586 L 316.100586 75.100586 M 316.100586 73.600586 L 320.102539 75.100586 L 316.100586 76.600586 " transform="matrix(1.333333,0,0,1.333333,-82.666667,-77.333333)"/>
<path style=" stroke:none;fill-rule:nonzero;fill:rgb(100%,100%,100%);fill-opacity:1;" d="M 1.863281 36.800781 L 58.933594 36.800781 L 58.933594 8.800781 L 1.863281 8.800781 Z M 1.863281 36.800781 "/>
<path style="fill:none;stroke-width:1;stroke-linecap:round;stroke-linejoin:round;stroke:rgb(0%,0%,0%);stroke-opacity:1;stroke-miterlimit:10;" d="M 63.397461 64.600586 L 106.200195 64.600586 L 106.200195 85.600586 L 63.397461 85.600586 Z M 63.397461 64.600586 " transform="matrix(1.333333,0,0,1.333333,-82.666667,-77.333333)"/>
<path style=" stroke:none;fill-rule:nonzero;fill:rgb(0%,0%,0%);fill-opacity:1;" d="M 21.148438 21.007812 L 21.148438 22.777344 L 19.960938 22.777344 C 20.253906 22.007812 20.546875 21.132812 20.796875 20.152344 L 23.109375 20.152344 L 23.109375 19.339844 L 21.003906 19.339844 C 21.109375 18.863281 21.210938 18.339844 21.335938 17.800781 L 20.546875 17.632812 C 20.421875 18.214844 20.316406 18.800781 20.191406 19.339844 L 19.003906 19.339844 L 19.003906 20.152344 L 20.003906 20.152344 C 19.734375 21.214844 19.441406 22.132812 19.085938 22.839844 L 19.273438 23.570312 L 21.148438 23.570312 L 21.148438 25.363281 C 20.441406 25.488281 19.710938 25.613281 18.921875 25.695312 L 19.023438 26.550781 C 19.753906 26.425781 20.460938 26.320312 21.148438 26.175781 L 21.148438 28.675781 L 21.941406 28.675781 L 21.941406 26.007812 L 23.085938 25.714844 L 23.085938 24.902344 C 22.734375 24.988281 22.359375 25.089844 21.941406 25.195312 L 21.941406 23.570312 L 23.046875 23.570312 L 23.046875 22.777344 L 21.941406 22.777344 L 21.941406 21.007812 Z M 24.691406 20.382812 L 24.691406 21.089844 L 28.128906 21.089844 L 28.128906 20.382812 L 24.691406 20.382812 C 25.296875 19.800781 25.878906 19.152344 26.441406 18.464844 C 27.359375 19.632812 28.378906 20.632812 29.503906 21.445312 L 29.960938 20.777344 C 28.878906 20.007812 27.816406 18.988281 26.753906 17.695312 L 26.148438 17.695312 C 25.171875 18.882812 24.066406 19.945312 22.835938 20.839844 L 23.316406 21.570312 C 23.773438 21.195312 24.234375 20.800781 24.691406 20.382812 Z M 25.523438 28.589844 C 26.109375 28.589844 26.421875 28.277344 26.421875 27.652344 L 26.421875 22.050781 L 23.585938 22.050781 L 23.585938 28.675781 L 24.335938 28.675781 L 24.335938 26.425781 L 25.691406 26.425781 L 25.691406 27.507812 C 25.691406 27.757812 25.546875 27.902344 25.296875 27.902344 L 24.753906 27.882812 L 24.941406 28.589844 Z M 24.335938 25.757812 L 24.335938 24.613281 L 25.691406 24.613281 L 25.691406 25.757812 Z M 24.335938 23.945312 L 24.335938 22.757812 L 25.691406 22.757812 L 25.691406 23.945312 Z M 27.128906 22.382812 L 27.128906 26.695312 L 27.816406 26.695312 L 27.816406 22.382812 Z M 28.441406 28.613281 C 29.023438 28.613281 29.316406 28.257812 29.316406 27.570312 L 29.316406 21.839844 L 28.566406 21.839844 L 28.566406 27.382812 C 28.566406 27.714844 28.441406 27.902344 28.171875 27.902344 C 27.878906 27.902344 27.566406 27.882812 27.253906 27.839844 L 27.421875 28.613281 Z M 28.441406 28.613281 "/>
<path style=" stroke:none;fill-rule:nonzero;fill:rgb(0%,0%,0%);fill-opacity:1;" d="M 35.878906 20.445312 C 35.109375 23.632812 33.441406 26.089844 30.859375 27.757812 L 31.378906 28.507812 C 33.898438 26.863281 35.566406 24.507812 36.359375 21.445312 C 36.421875 21.589844 36.460938 21.757812 36.546875 21.964844 C 37.773438 25.132812 39.359375 27.320312 41.316406 28.488281 L 41.859375 27.800781 C 39.941406 26.613281 38.441406 24.570312 37.316406 21.714844 C 36.585938 19.757812 35.671875 18.402344 34.609375 17.652344 L 33.898438 18.113281 C 34.648438 18.675781 35.316406 19.445312 35.878906 20.445312 Z M 35.878906 20.445312 "/>
<path style=" stroke:none;fill-rule:nonzero;fill:rgb(100%,100%,100%);fill-opacity:1;" d="M 174.265625 36.800781 L 231.332031 36.800781 L 231.332031 8.800781 L 174.265625 8.800781 Z M 174.265625 36.800781 "/>
<path style="fill:none;stroke-width:1;stroke-linecap:round;stroke-linejoin:round;stroke:rgb(0%,0%,0%);stroke-opacity:1;stroke-miterlimit:10;" d="M 192.699219 64.600586 L 235.499023 64.600586 L 235.499023 85.600586 L 192.699219 85.600586 Z M 192.699219 64.600586 " transform="matrix(1.333333,0,0,1.333333,-82.666667,-77.333333)"/>
<path style=" stroke:none;fill-rule:nonzero;fill:rgb(0%,0%,0%);fill-opacity:1;" d="M 194.027344 23.425781 C 193.214844 24.300781 192.300781 25.070312 191.300781 25.714844 L 191.570312 26.632812 C 192.488281 25.945312 193.300781 25.214844 194.027344 24.445312 L 194.027344 28.632812 L 194.882812 28.632812 L 194.882812 17.738281 L 194.027344 17.738281 Z M 192.277344 18.925781 L 191.464844 19.195312 C 191.925781 20.089844 192.339844 21.152344 192.714844 22.363281 L 193.464844 22.007812 C 193.132812 20.925781 192.738281 19.882812 192.277344 18.925781 Z M 200.382812 17.902344 L 199.695312 18.320312 C 200.320312 19.027344 200.839844 19.675781 201.195312 20.277344 L 201.863281 19.800781 C 201.507812 19.257812 201.027344 18.613281 200.382812 17.902344 Z M 199.050781 17.695312 L 198.195312 17.695312 C 198.195312 18.425781 198.175781 19.507812 198.132812 20.882812 L 195.675781 20.882812 L 195.675781 21.714844 L 198.089844 21.714844 C 197.839844 24.089844 196.925781 26.195312 195.320312 27.988281 L 195.882812 28.632812 C 197.257812 27.175781 198.195312 25.363281 198.714844 23.175781 C 199.238281 25.363281 200.257812 27.175781 201.757812 28.613281 L 202.363281 27.964844 C 200.695312 26.488281 199.613281 24.402344 199.113281 21.714844 L 201.945312 21.714844 L 201.945312 20.882812 L 199.007812 20.882812 C 199.027344 19.632812 199.050781 18.589844 199.050781 17.695312 Z M 199.050781 17.695312 "/>
<path style=" stroke:none;fill-rule:nonzero;fill:rgb(0%,0%,0%);fill-opacity:1;" d="M 208.363281 17.550781 C 208.320312 18.027344 208.214844 18.488281 208.089844 18.925781 L 203.863281 18.925781 L 203.863281 19.757812 L 207.800781 19.757812 C 207.570312 20.214844 207.320312 20.632812 206.964844 21.007812 C 206.214844 21.800781 204.988281 22.425781 203.277344 22.839844 L 203.613281 23.632812 C 205.050781 23.257812 206.175781 22.777344 206.964844 22.195312 C 207.550781 22.632812 208.132812 23.152344 208.695312 23.738281 L 209.300781 23.132812 C 208.652344 22.550781 208.070312 22.070312 207.550781 21.695312 C 207.589844 21.652344 207.632812 21.613281 207.675781 21.570312 C 208.113281 21.050781 208.464844 20.445312 208.738281 19.757812 L 208.925781 19.757812 C 209.527344 21.382812 211.132812 22.675781 213.800781 23.613281 L 214.257812 22.863281 C 211.863281 22.113281 210.382812 21.089844 209.800781 19.757812 L 213.632812 19.757812 L 213.632812 18.925781 L 209.007812 18.925781 C 209.089844 18.507812 209.175781 18.089844 209.238281 17.632812 Z M 204.507812 24.652344 C 204.277344 25.714844 203.925781 26.714844 203.402344 27.589844 L 204.152344 28.070312 C 204.675781 27.152344 205.070312 26.070312 205.363281 24.820312 Z M 209.070312 24.214844 L 208.300781 24.445312 C 208.695312 25.070312 209.050781 25.777344 209.382812 26.570312 L 210.175781 26.238281 C 209.863281 25.507812 209.488281 24.839844 209.070312 24.214844 Z M 212.652344 24.464844 L 211.820312 24.738281 C 212.382812 25.589844 212.902344 26.570312 213.363281 27.695312 L 214.152344 27.339844 C 213.738281 26.320312 213.238281 25.363281 212.652344 24.464844 Z M 210.445312 28.425781 C 210.902344 28.425781 211.238281 28.300781 211.445312 28.113281 C 211.695312 27.863281 211.863281 27.214844 211.945312 26.132812 L 211.132812 25.863281 C 211.070312 26.695312 210.988281 27.195312 210.839844 27.363281 C 210.738281 27.507812 210.550781 27.570312 210.300781 27.570312 L 207.675781 27.570312 C 207.320312 27.570312 207.152344 27.402344 207.152344 27.027344 L 207.152344 24.613281 L 206.257812 24.613281 L 206.257812 27.214844 C 206.257812 28.007812 206.632812 28.425781 207.402344 28.425781 Z M 210.445312 28.425781 "/>
<path style=" stroke:none;fill-rule:nonzero;fill:rgb(100%,100%,100%);fill-opacity:1;" d="M 346.667969 36.800781 L 403.734375 36.800781 L 403.734375 8.800781 L 346.667969 8.800781 Z M 346.667969 36.800781 "/>
<path style="fill:none;stroke-width:1;stroke-linecap:round;stroke-linejoin:round;stroke:rgb(0%,0%,0%);stroke-opacity:1;stroke-miterlimit:10;" d="M 322.000977 64.600586 L 364.800781 64.600586 L 364.800781 85.600586 L 322.000977 85.600586 Z M 322.000977 64.600586 " transform="matrix(1.333333,0,0,1.333333,-82.666667,-77.333333)"/>
<path style=" stroke:none;fill-rule:nonzero;fill:rgb(0%,0%,0%);fill-opacity:1;" d="M 365.949219 21.007812 L 365.949219 22.777344 L 364.761719 22.777344 C 365.054688 22.007812 365.347656 21.132812 365.597656 20.152344 L 367.910156 20.152344 L 367.910156 19.339844 L 365.804688 19.339844 C 365.910156 18.863281 366.011719 18.339844 366.136719 17.800781 L 365.347656 17.632812 C 365.222656 18.214844 365.117188 18.800781 364.992188 19.339844 L 363.804688 19.339844 L 363.804688 20.152344 L 364.804688 20.152344 C 364.535156 21.214844 364.242188 22.132812 363.886719 22.839844 L 364.074219 23.570312 L 365.949219 23.570312 L 365.949219 25.363281 C 365.242188 25.488281 364.511719 25.613281 363.722656 25.695312 L 363.824219 26.550781 C 364.554688 26.425781 365.261719 26.320312 365.949219 26.175781 L 365.949219 28.675781 L 366.742188 28.675781 L 366.742188 26.007812 L 367.886719 25.714844 L 367.886719 24.902344 C 367.535156 24.988281 367.160156 25.089844 366.742188 25.195312 L 366.742188 23.570312 L 367.847656 23.570312 L 367.847656 22.777344 L 366.742188 22.777344 L 366.742188 21.007812 Z M 369.492188 20.382812 L 369.492188 21.089844 L 372.929688 21.089844 L 372.929688 20.382812 L 369.492188 20.382812 C 370.097656 19.800781 370.679688 19.152344 371.242188 18.464844 C 372.160156 19.632812 373.179688 20.632812 374.304688 21.445312 L 374.761719 20.777344 C 373.679688 20.007812 372.617188 18.988281 371.554688 17.695312 L 370.949219 17.695312 C 369.972656 18.882812 368.867188 19.945312 367.636719 20.839844 L 368.117188 21.570312 C 368.574219 21.195312 369.035156 20.800781 369.492188 20.382812 Z M 370.324219 28.589844 C 370.910156 28.589844 371.222656 28.277344 371.222656 27.652344 L 371.222656 22.050781 L 368.386719 22.050781 L 368.386719 28.675781 L 369.136719 28.675781 L 369.136719 26.425781 L 370.492188 26.425781 L 370.492188 27.507812 C 370.492188 27.757812 370.347656 27.902344 370.097656 27.902344 L 369.554688 27.882812 L 369.742188 28.589844 Z M 369.136719 25.757812 L 369.136719 24.613281 L 370.492188 24.613281 L 370.492188 25.757812 Z M 369.136719 23.945312 L 369.136719 22.757812 L 370.492188 22.757812 L 370.492188 23.945312 Z M 371.929688 22.382812 L 371.929688 26.695312 L 372.617188 26.695312 L 372.617188 22.382812 Z M 373.242188 28.613281 C 373.824219 28.613281 374.117188 28.257812 374.117188 27.570312 L 374.117188 21.839844 L 373.367188 21.839844 L 373.367188 27.382812 C 373.367188 27.714844 373.242188 27.902344 372.972656 27.902344 C 372.679688 27.902344 372.367188 27.882812 372.054688 27.839844 L 372.222656 28.613281 Z M 373.242188 28.613281 "/>
<path style=" stroke:none;fill-rule:nonzero;fill:rgb(0%,0%,0%);fill-opacity:1;" d="M 384.449219 21.839844 L 381.636719 21.839844 L 381.636719 17.652344 L 380.761719 17.652344 L 380.761719 21.839844 L 377.949219 21.839844 L 377.949219 18.570312 L 377.074219 18.570312 L 377.074219 22.675781 L 380.761719 22.675781 L 380.761719 27.089844 L 377.367188 27.089844 L 377.367188 23.800781 L 376.492188 23.800781 L 376.492188 28.589844 L 377.367188 28.589844 L 377.367188 27.902344 L 385.035156 27.902344 L 385.035156 28.589844 L 385.910156 28.589844 L 385.910156 23.800781 L 385.035156 23.800781 L 385.035156 27.089844 L 381.636719 27.089844 L 381.636719 22.675781 L 385.324219 22.675781 L 385.324219 18.570312 L 384.449219 18.570312 Z M 384.449219 21.839844 "/>
<path style="fill:none;stroke-width:1;stroke-linecap:round;stroke-linejoin:round;stroke:rgb(0%,0%,0%);stroke-opacity:1;stroke-miterlimit:10;" d="M 235.499023 75.100586 L 247.147461 75.100586 " transform="matrix(1.333333,0,0,1.333333,-82.666667,-77.333333)"/>
<path style="fill:none;stroke-width:1;stroke-linecap:butt;stroke-linejoin:miter;stroke:rgb(0%,0%,0%);stroke-opacity:1;stroke-miterlimit:10;" d="M 251.149414 75.100586 L 247.147461 75.100586 M 247.147461 73.600586 L 251.149414 75.100586 L 247.147461 76.600586 " transform="matrix(1.333333,0,0,1.333333,-82.666667,-77.333333)"/>
<path style=" stroke:none;fill-rule:nonzero;fill:rgb(100%,100%,100%);fill-opacity:1;" d="M 260.46875 94.667969 L 317.53125 94.667969 L 317.53125 66.667969 L 260.46875 66.667969 Z M 260.46875 94.667969 "/>
<path style="fill:none;stroke-width:1;stroke-linecap:round;stroke-linejoin:round;stroke:rgb(0%,0%,0%);stroke-opacity:1;stroke-miterlimit:10;" d="M 257.351562 108.000977 L 300.148438 108.000977 L 300.148438 129.000977 L 257.351562 129.000977 Z M 257.351562 108.000977 " transform="matrix(1.333333,0,0,1.333333,-82.666667,-77.333333)"/>
<path style=" stroke:none;fill-rule:nonzero;fill:rgb(0%,0%,0%);fill-opacity:1;" d="M 279.75 78.875 L 279.75 80.644531 L 278.5625 80.644531 C 278.855469 79.875 279.144531 79 279.394531 78.019531 L 281.707031 78.019531 L 281.707031 77.207031 L 279.605469 77.207031 C 279.707031 76.730469 279.8125 76.207031 279.9375 75.667969 L 279.144531 75.5 C 279.019531 76.082031 278.917969 76.667969 278.792969 77.207031 L 277.605469 77.207031 L 277.605469 78.019531 L 278.605469 78.019531 C 278.332031 79.082031 278.042969 80 277.6875 80.707031 L 277.875 81.4375 L 279.75 81.4375 L 279.75 83.230469 C 279.042969 83.355469 278.3125 83.480469 277.519531 83.5625 L 277.625 84.417969 C 278.355469 84.292969 279.0625 84.1875 279.75 84.042969 L 279.75 86.542969 L 280.542969 86.542969 L 280.542969 83.875 L 281.6875 83.582031 L 281.6875 82.769531 C 281.332031 82.855469 280.957031 82.957031 280.542969 83.0625 L 280.542969 81.4375 L 281.644531 81.4375 L 281.644531 80.644531 L 280.542969 80.644531 L 280.542969 78.875 Z M 283.292969 78.25 L 283.292969 78.957031 L 286.730469 78.957031 L 286.730469 78.25 L 283.292969 78.25 C 283.894531 77.667969 284.480469 77.019531 285.042969 76.332031 C 285.957031 77.5 286.980469 78.5 288.105469 79.3125 L 288.5625 78.644531 C 287.480469 77.875 286.417969 76.855469 285.355469 75.5625 L 284.75 75.5625 C 283.769531 76.75 282.667969 77.8125 281.4375 78.707031 L 281.917969 79.4375 C 282.375 79.0625 282.832031 78.667969 283.292969 78.25 Z M 284.125 86.457031 C 284.707031 86.457031 285.019531 86.144531 285.019531 85.519531 L 285.019531 79.917969 L 282.1875 79.917969 L 282.1875 86.542969 L 282.9375 86.542969 L 282.9375 84.292969 L 284.292969 84.292969 L 284.292969 85.375 C 284.292969 85.625 284.144531 85.769531 283.894531 85.769531 L 283.355469 85.75 L 283.542969 86.457031 Z M 282.9375 83.625 L 282.9375 82.480469 L 284.292969 82.480469 L 284.292969 83.625 Z M 282.9375 81.8125 L 282.9375 80.625 L 284.292969 80.625 L 284.292969 81.8125 Z M 285.730469 80.25 L 285.730469 84.5625 L 286.417969 84.5625 L 286.417969 80.25 Z M 287.042969 86.480469 C 287.625 86.480469 287.917969 86.125 287.917969 85.4375 L 287.917969 79.707031 L 287.167969 79.707031 L 287.167969 85.25 C 287.167969 85.582031 287.042969 85.769531 286.769531 85.769531 C 286.480469 85.769531 286.167969 85.75 285.855469 85.707031 L 286.019531 86.480469 Z M 287.042969 86.480469 "/>
<path style=" stroke:none;fill-rule:nonzero;fill:rgb(0%,0%,0%);fill-opacity:1;" d="M 294.480469 78.3125 C 293.707031 81.5 292.042969 83.957031 289.457031 85.625 L 289.980469 86.375 C 292.5 84.730469 294.167969 82.375 294.957031 79.3125 C 295.019531 79.457031 295.0625 79.625 295.144531 79.832031 C 296.375 83 297.957031 85.1875 299.917969 86.355469 L 300.457031 85.667969 C 298.542969 84.480469 297.042969 82.4375 295.917969 79.582031 C 295.1875 77.625 294.269531 76.269531 293.207031 75.519531 L 292.5 75.980469 C 293.25 76.542969 293.917969 77.3125 294.480469 78.3125 Z M 294.480469 78.3125 "/>
<path style="fill:none;stroke-width:1;stroke-linecap:round;stroke-linejoin:round;stroke:rgb(0%,0%,0%);stroke-opacity:1;stroke-miterlimit:10;" d="M 278.75 108.000977 L 278.75 97.102539 " transform="matrix(1.333333,0,0,1.333333,-82.666667,-77.333333)"/>
<path style="fill:none;stroke-width:1;stroke-linecap:butt;stroke-linejoin:miter;stroke:rgb(0%,0%,0%);stroke-opacity:1;stroke-miterlimit:10;" d="M 278.75 93.100586 L 278.75 97.102539 M 277.25 97.102539 L 278.75 93.100586 L 280.25 97.102539 " transform="matrix(1.333333,0,0,1.333333,-82.666667,-77.333333)"/>
</g>
</svg>
