<?xml version="1.0" encoding="UTF-8"?>
<svg xmlns="http://www.w3.org/2000/svg" xmlns:xlink="http://www.w3.org/1999/xlink" width="252" height="146.666667" viewBox="0 0 252 146.666667" version="1.1">
<g id="surface1">
<path style="fill:none;stroke-width:1;stroke-linecap:round;stroke-linejoin:round;stroke:rgb(0%,0%,0%);stroke-opacity:1;stroke-miterlimit:10;" d="M 243.000977 62.999023 L 333.000977 62.999023 L 333.000977 98.999023 L 243.000977 98.999023 Z M 243.000977 62.999023 " transform="matrix(1.333333,0,0,1.333333,-229.333333,-82.666667)"/>
<path style="fill:none;stroke-width:1;stroke-linecap:round;stroke-linejoin:round;stroke:rgb(0%,0%,0%);stroke-opacity:1;stroke-miterlimit:10;" d="M 261.000977 71.999023 L 351.000977 71.999023 L 351.000977 107.999023 L 261.000977 107.999023 Z M 261.000977 71.999023 " transform="matrix(1.333333,0,0,1.333333,-229.333333,-82.666667)"/>
<path style=" stroke:none;fill-rule:nonzero;fill:rgb(40.000001%,74.901962%,100%);fill-opacity:1;" d="M 118.667969 49.332031 L 214.667969 49.332031 L 214.667969 13.332031 L 118.667969 13.332031 Z M 118.667969 49.332031 "/>
<path style="fill:none;stroke-width:1;stroke-linecap:round;stroke-linejoin:round;stroke:rgb(0%,0%,0%);stroke-opacity:1;stroke-miterlimit:10;" d="M 261.000977 71.999023 L 333.000977 71.999023 L 333.000977 98.999023 L 261.000977 98.999023 Z M 261.000977 71.999023 " transform="matrix(1.333333,0,0,1.333333,-229.333333,-82.666667)"/>
<path style=" stroke:none;fill-rule:nonzero;fill:rgb(0%,0%,0%);fill-opacity:1;" d="M 153.605469 26.894531 L 148 26.894531 L 148 37.207031 L 148.832031 37.207031 L 148.832031 36.457031 L 152.769531 36.457031 L 152.769531 37.207031 L 153.605469 37.207031 Z M 148.832031 35.644531 L 148.832031 33.519531 L 152.769531 33.519531 L 152.769531 35.644531 Z M 148.832031 32.707031 L 148.832031 30.582031 L 152.769531 30.582031 L 152.769531 32.707031 Z M 148.832031 29.792969 L 148.832031 27.730469 L 152.769531 27.730469 L 152.769531 29.792969 Z M 145.894531 30.917969 C 146.230469 31.375 146.625 31.9375 147.082031 32.644531 L 147.542969 31.9375 C 147 31.230469 146.4375 30.582031 145.894531 30.019531 L 145.894531 29.375 L 147.4375 29.375 L 147.4375 28.542969 L 145.894531 28.542969 L 145.894531 26.207031 L 145.042969 26.207031 L 145.042969 28.542969 L 143.355469 28.542969 L 143.355469 29.375 L 145.019531 29.375 C 144.625 30.875 144.019531 32.207031 143.125 33.375 L 143.480469 34.230469 C 144.125 33.292969 144.625 32.25 145.042969 31.105469 L 145.042969 37.1875 L 145.894531 37.1875 Z M 145.894531 30.917969 "/>
<path style=" stroke:none;fill-rule:nonzero;fill:rgb(0%,0%,0%);fill-opacity:1;" d="M 155.355469 27.625 L 155.355469 28.457031 L 165.980469 28.457031 L 165.980469 27.625 L 161.25 27.625 C 161.042969 27.0625 160.792969 26.5625 160.5625 26.105469 L 159.605469 26.269531 C 159.855469 26.6875 160.105469 27.125 160.3125 27.625 Z M 162.5625 28.8125 L 161.980469 29.375 C 163.375 30.519531 164.480469 31.605469 165.269531 32.605469 L 165.917969 31.957031 C 165.019531 30.917969 163.894531 29.875 162.5625 28.8125 Z M 162.6875 31.0625 C 162.167969 32.0625 161.5 32.9375 160.6875 33.707031 C 159.832031 32.980469 159.125 32.125 158.605469 31.144531 L 157.855469 31.5625 C 158.417969 32.5625 159.144531 33.480469 160.019531 34.269531 C 158.75 35.230469 157.1875 35.957031 155.292969 36.4375 L 155.8125 37.230469 C 157.730469 36.730469 159.375 35.9375 160.707031 34.855469 C 162.019531 35.855469 163.625 36.625 165.582031 37.167969 L 166.125 36.375 C 164.25 35.894531 162.667969 35.1875 161.375 34.25 C 162.207031 33.457031 162.894531 32.5 163.480469 31.394531 Z M 158.707031 28.832031 C 157.792969 29.957031 156.6875 30.917969 155.394531 31.769531 L 155.9375 32.5 C 157.292969 31.605469 158.417969 30.5625 159.3125 29.375 Z M 158.707031 28.832031 "/>
<path style=" stroke:none;fill-rule:nonzero;fill:rgb(0%,0%,0%);fill-opacity:1;" d="M 167.332031 26.667969 L 167.332031 27.519531 L 172.3125 27.519531 C 172.230469 28.042969 172.0625 28.542969 171.875 29.042969 L 168.019531 29.042969 L 168.019531 37.230469 L 168.832031 37.230469 L 168.832031 36.644531 L 176.519531 36.644531 L 176.519531 37.230469 L 177.355469 37.230469 L 177.355469 29.042969 L 172.75 29.042969 C 172.9375 28.5625 173.105469 28.042969 173.1875 27.519531 L 178 27.519531 L 178 26.667969 Z M 168.832031 35.855469 L 168.832031 29.832031 L 170.5 29.832031 L 170.5 35.855469 Z M 171.292969 35.855469 L 171.292969 34.3125 L 174.042969 34.3125 L 174.042969 35.855469 Z M 174.832031 35.855469 L 174.832031 29.832031 L 176.519531 29.832031 L 176.519531 35.855469 Z M 171.292969 33.542969 L 171.292969 32.082031 L 174.042969 32.082031 L 174.042969 33.542969 Z M 171.292969 31.3125 L 171.292969 29.832031 L 174.042969 29.832031 L 174.042969 31.3125 Z M 171.292969 31.3125 "/>
<path style=" stroke:none;fill-rule:nonzero;fill:rgb(0%,0%,0%);fill-opacity:1;" d="M 179.582031 28.042969 C 180.167969 27.980469 180.707031 27.875 181.230469 27.769531 L 181.230469 29.480469 L 179.457031 29.480469 L 179.457031 30.3125 L 181.1875 30.3125 C 180.769531 31.707031 180.0625 32.9375 179.105469 34.019531 L 179.457031 34.917969 C 180.1875 33.980469 180.769531 32.894531 181.230469 31.730469 L 181.230469 37.144531 L 182.042969 37.144531 L 182.042969 31.667969 C 182.394531 32.144531 182.8125 32.8125 183.3125 33.644531 L 183.792969 32.9375 C 183.1875 32.1875 182.625 31.519531 182.042969 30.917969 L 182.042969 30.3125 L 183.519531 30.3125 L 183.519531 29.480469 L 182.042969 29.480469 L 182.042969 27.582031 C 182.542969 27.457031 183.019531 27.332031 183.457031 27.167969 L 183.144531 26.355469 C 182.082031 26.792969 180.832031 27.0625 179.417969 27.207031 Z M 184.230469 26.917969 L 184.230469 32.5 L 189.417969 32.5 L 189.417969 26.917969 Z M 188.5625 31.6875 L 185.105469 31.6875 L 185.105469 27.75 L 188.5625 27.75 Z M 185.269531 33.269531 C 184.730469 34.605469 184.0625 35.75 183.292969 36.707031 L 184.019531 37.230469 C 184.792969 36.207031 185.480469 35.019531 186.042969 33.644531 Z M 188.207031 33.207031 L 187.519531 33.644531 C 188.355469 34.9375 189.042969 36.125 189.542969 37.207031 L 190.269531 36.6875 C 189.792969 35.707031 189.105469 34.542969 188.207031 33.207031 Z M 188.207031 33.207031 "/>
<path style=" stroke:none;fill-rule:nonzero;fill:rgb(0%,0%,0%);fill-opacity:1;" d="M 10.042969 70.167969 L 10.042969 71.269531 L 24.1875 71.269531 L 24.1875 70.167969 L 17.898438 70.167969 C 17.605469 69.4375 17.273438 68.75 16.960938 68.144531 L 15.6875 68.375 C 16.042969 68.917969 16.355469 69.5 16.648438 70.167969 Z M 19.625 71.75 L 18.855469 72.5 C 20.730469 74.042969 22.1875 75.457031 23.25 76.8125 L 24.105469 75.957031 C 22.898438 74.542969 21.417969 73.167969 19.625 71.75 Z M 19.792969 74.75 C 19.105469 76.082031 18.210938 77.25 17.125 78.269531 C 15.980469 77.292969 15.0625 76.167969 14.355469 74.855469 L 13.355469 75.417969 C 14.105469 76.75 15.0625 77.980469 16.25 79.019531 C 14.5625 80.3125 12.460938 81.269531 9.9375 81.917969 L 10.648438 82.957031 C 13.210938 82.292969 15.375 81.230469 17.167969 79.792969 C 18.898438 81.144531 21.0625 82.167969 23.648438 82.894531 L 24.375 81.832031 C 21.875 81.1875 19.773438 80.269531 18.042969 79.019531 C 19.148438 77.9375 20.085938 76.6875 20.855469 75.207031 Z M 14.480469 71.769531 C 13.273438 73.269531 11.8125 74.5625 10.0625 75.6875 L 10.792969 76.667969 C 12.585938 75.480469 14.105469 74.082031 15.3125 72.5 Z M 14.480469 71.769531 "/>
<path style=" stroke:none;fill-rule:nonzero;fill:rgb(0%,0%,0%);fill-opacity:1;" d="M 29.960938 68.082031 L 28.898438 68.605469 C 29.4375 69.375 29.960938 70.25 30.4375 71.230469 L 31.480469 70.730469 C 31 69.769531 30.480469 68.875 29.960938 68.082031 Z M 35.292969 72.394531 L 35.292969 76.144531 L 31.042969 76.144531 C 31.125 75.480469 31.167969 74.75 31.1875 73.9375 L 31.1875 72.394531 Z M 35.292969 77.25 L 35.292969 82.855469 L 36.480469 82.855469 L 36.480469 77.25 L 40.25 77.25 L 40.25 76.144531 L 36.480469 76.144531 L 36.480469 72.394531 L 39.625 72.394531 L 39.625 71.292969 L 36.042969 71.292969 C 36.585938 70.480469 37.0625 69.5625 37.523438 68.542969 L 36.292969 68.082031 C 35.835938 69.230469 35.335938 70.292969 34.730469 71.292969 L 26.648438 71.292969 L 26.648438 72.394531 L 30.023438 72.394531 L 30.023438 73.9375 C 30 74.730469 29.960938 75.457031 29.855469 76.144531 L 25.980469 76.144531 L 25.980469 77.25 L 29.6875 77.25 C 29.5625 77.875 29.375 78.4375 29.167969 78.957031 C 28.585938 80.1875 27.5625 81.1875 26.125 81.917969 L 26.792969 82.980469 C 28.3125 82.230469 29.417969 81.167969 30.085938 79.8125 C 30.417969 79.082031 30.6875 78.25 30.875 77.25 Z M 35.292969 77.25 "/>
<path style=" stroke:none;fill-rule:nonzero;fill:rgb(0%,0%,0%);fill-opacity:1;" d="M 50.730469 74.605469 C 52.375 74.167969 54.148438 73.5 55.980469 72.582031 L 55.292969 71.644531 C 53.8125 72.457031 52.292969 73.082031 50.730469 73.519531 L 50.730469 68.457031 L 49.5625 68.457031 L 49.5625 80.875 C 49.5625 81.9375 50.0625 82.480469 51.085938 82.480469 L 54.105469 82.480469 C 54.6875 82.480469 55.148438 82.292969 55.460938 81.980469 C 55.792969 81.582031 56.042969 80.457031 56.167969 78.605469 L 55.0625 78.25 C 55 79.875 54.835938 80.8125 54.585938 81.082031 C 54.375 81.292969 54.125 81.375 53.835938 81.375 L 51.417969 81.375 C 50.9375 81.375 50.730469 81.144531 50.730469 80.6875 Z M 43.0625 82.6875 C 45.0625 82.25 46.980469 81.75 48.730469 81.1875 L 48.4375 80.105469 C 47.042969 80.5625 45.648438 80.957031 44.25 81.292969 L 44.25 74.125 L 48.355469 74.125 L 48.355469 73 L 44.25 73 L 44.25 68.542969 L 43.085938 68.542969 L 43.085938 80.9375 C 43.085938 81.230469 42.960938 81.457031 42.710938 81.625 Z M 43.0625 82.6875 "/>
<path style=" stroke:none;fill-rule:nonzero;fill:rgb(0%,0%,0%);fill-opacity:1;" d="M 70.007812 74.605469 L 62.445312 74.605469 L 62.445312 73.292969 L 70.007812 73.292969 Z M 70.007812 78.082031 L 62.445312 78.082031 L 62.445312 76.769531 L 70.007812 76.769531 Z M 70.007812 78.082031 "/>
<path style="fill-rule:nonzero;fill:rgb(40.000001%,74.901962%,100%);fill-opacity:1;stroke-width:1;stroke-linecap:round;stroke-linejoin:round;stroke:rgb(0%,0%,0%);stroke-opacity:1;stroke-miterlimit:10;" d="M 261.000977 161.999023 L 261.000977 170.999023 L 351.000977 170.999023 L 351.000977 134.999023 L 333.000977 134.999023 L 333.000977 125.999023 L 243.000977 125.999023 L 243.000977 161.999023 Z M 261.000977 161.999023 " transform="matrix(1.333333,0,0,1.333333,-229.333333,-82.666667)"/>
<path style=" stroke:none;fill-rule:nonzero;fill:rgb(0%,0%,0%);fill-opacity:1;" d="M 153.605469 110.894531 L 148 110.894531 L 148 121.207031 L 148.832031 121.207031 L 148.832031 120.457031 L 152.769531 120.457031 L 152.769531 121.207031 L 153.605469 121.207031 Z M 148.832031 119.644531 L 148.832031 117.519531 L 152.769531 117.519531 L 152.769531 119.644531 Z M 148.832031 116.707031 L 148.832031 114.582031 L 152.769531 114.582031 L 152.769531 116.707031 Z M 148.832031 113.792969 L 148.832031 111.730469 L 152.769531 111.730469 L 152.769531 113.792969 Z M 145.894531 114.917969 C 146.230469 115.375 146.625 115.9375 147.082031 116.644531 L 147.542969 115.9375 C 147 115.230469 146.4375 114.582031 145.894531 114.019531 L 145.894531 113.375 L 147.4375 113.375 L 147.4375 112.542969 L 145.894531 112.542969 L 145.894531 110.207031 L 145.042969 110.207031 L 145.042969 112.542969 L 143.355469 112.542969 L 143.355469 113.375 L 145.019531 113.375 C 144.625 114.875 144.019531 116.207031 143.125 117.375 L 143.480469 118.230469 C 144.125 117.292969 144.625 116.25 145.042969 115.105469 L 145.042969 121.1875 L 145.894531 121.1875 Z M 145.894531 114.917969 "/>
<path style=" stroke:none;fill-rule:nonzero;fill:rgb(0%,0%,0%);fill-opacity:1;" d="M 158.3125 110.0625 L 157.519531 110.457031 C 157.917969 111.019531 158.3125 111.6875 158.667969 112.4375 L 159.4375 112.042969 C 159.082031 111.332031 158.707031 110.667969 158.3125 110.0625 Z M 162.3125 113.292969 L 162.3125 116.105469 L 159.125 116.105469 C 159.1875 115.605469 159.207031 115.0625 159.230469 114.457031 L 159.230469 113.292969 Z M 162.3125 116.9375 L 162.3125 121.144531 L 163.207031 121.144531 L 163.207031 116.9375 L 166.019531 116.9375 L 166.019531 116.105469 L 163.207031 116.105469 L 163.207031 113.292969 L 165.542969 113.292969 L 165.542969 112.457031 L 162.855469 112.457031 C 163.269531 111.855469 163.644531 111.167969 163.980469 110.394531 L 163.0625 110.0625 C 162.707031 110.917969 162.332031 111.730469 161.875 112.457031 L 155.8125 112.457031 L 155.8125 113.292969 L 158.355469 113.292969 L 158.355469 114.457031 C 158.332031 115.042969 158.3125 115.605469 158.230469 116.105469 L 155.332031 116.105469 L 155.332031 116.9375 L 158.105469 116.9375 C 158 117.417969 157.875 117.832031 157.707031 118.207031 C 157.292969 119.144531 156.519531 119.894531 155.4375 120.4375 L 155.9375 121.230469 C 157.082031 120.667969 157.894531 119.875 158.394531 118.855469 C 158.644531 118.3125 158.855469 117.6875 159 116.9375 Z M 162.3125 116.9375 "/>
<path style=" stroke:none;fill-rule:nonzero;fill:rgb(0%,0%,0%);fill-opacity:1;" d="M 167.332031 110.667969 L 167.332031 111.519531 L 172.3125 111.519531 C 172.230469 112.042969 172.0625 112.542969 171.875 113.042969 L 168.019531 113.042969 L 168.019531 121.230469 L 168.832031 121.230469 L 168.832031 120.644531 L 176.519531 120.644531 L 176.519531 121.230469 L 177.355469 121.230469 L 177.355469 113.042969 L 172.75 113.042969 C 172.9375 112.5625 173.105469 112.042969 173.1875 111.519531 L 178 111.519531 L 178 110.667969 Z M 168.832031 119.855469 L 168.832031 113.832031 L 170.5 113.832031 L 170.5 119.855469 Z M 171.292969 119.855469 L 171.292969 118.3125 L 174.042969 118.3125 L 174.042969 119.855469 Z M 174.832031 119.855469 L 174.832031 113.832031 L 176.519531 113.832031 L 176.519531 119.855469 Z M 171.292969 117.542969 L 171.292969 116.082031 L 174.042969 116.082031 L 174.042969 117.542969 Z M 171.292969 115.3125 L 171.292969 113.832031 L 174.042969 113.832031 L 174.042969 115.3125 Z M 171.292969 115.3125 "/>
<path style=" stroke:none;fill-rule:nonzero;fill:rgb(0%,0%,0%);fill-opacity:1;" d="M 179.582031 112.042969 C 180.167969 111.980469 180.707031 111.875 181.230469 111.769531 L 181.230469 113.480469 L 179.457031 113.480469 L 179.457031 114.3125 L 181.1875 114.3125 C 180.769531 115.707031 180.0625 116.9375 179.105469 118.019531 L 179.457031 118.917969 C 180.1875 117.980469 180.769531 116.894531 181.230469 115.730469 L 181.230469 121.144531 L 182.042969 121.144531 L 182.042969 115.667969 C 182.394531 116.144531 182.8125 116.8125 183.3125 117.644531 L 183.792969 116.9375 C 183.1875 116.1875 182.625 115.519531 182.042969 114.917969 L 182.042969 114.3125 L 183.519531 114.3125 L 183.519531 113.480469 L 182.042969 113.480469 L 182.042969 111.582031 C 182.542969 111.457031 183.019531 111.332031 183.457031 111.167969 L 183.144531 110.355469 C 182.082031 110.792969 180.832031 111.0625 179.417969 111.207031 Z M 184.230469 110.917969 L 184.230469 116.5 L 189.417969 116.5 L 189.417969 110.917969 Z M 188.5625 115.6875 L 185.105469 115.6875 L 185.105469 111.75 L 188.5625 111.75 Z M 185.269531 117.269531 C 184.730469 118.605469 184.0625 119.75 183.292969 120.707031 L 184.019531 121.230469 C 184.792969 120.207031 185.480469 119.019531 186.042969 117.644531 Z M 188.207031 117.207031 L 187.519531 117.644531 C 188.355469 118.9375 189.042969 120.125 189.542969 121.207031 L 190.269531 120.6875 C 189.792969 119.707031 189.105469 118.542969 188.207031 117.207031 Z M 188.207031 117.207031 "/>
<path style="fill:none;stroke-width:1;stroke-linecap:round;stroke-linejoin:round;stroke:rgb(0%,0%,0%);stroke-opacity:1;stroke-miterlimit:10;" d="M 234.000977 116.999023 L 360.000977 116.999023 " transform="matrix(1.333333,0,0,1.333333,-229.333333,-82.666667)"/>
</g>
</svg>
