<?xml version="1.0" encoding="UTF-8"?>
<svg xmlns="http://www.w3.org/2000/svg" xmlns:xlink="http://www.w3.org/1999/xlink" width="404" height="176" viewBox="0 0 404 176" version="1.1">
<g id="surface1">
<path style="fill:none;stroke-width:1;stroke-linecap:round;stroke-linejoin:round;stroke:rgb(0%,0%,0%);stroke-opacity:1;stroke-miterlimit:10;" d="M 8.075195 246.500977 L 30.575195 246.500977 L 30.575195 269.000977 L 8.075195 269.000977 Z M 8.075195 246.500977 " transform="matrix(1.333333,0,0,1.333333,-9.333333,-232)"/>
<path style=" stroke:none;fill-rule:nonzero;fill:rgb(0%,0%,0%);fill-opacity:1;" d="M 17.242188 113 L 17.242188 112.707031 C 17.054688 112.644531 16.972656 112.605469 16.886719 112.480469 L 15.097656 109.730469 L 16.304688 108.230469 C 16.535156 107.957031 16.785156 107.8125 17.160156 107.75 L 17.160156 107.457031 L 15.136719 107.457031 L 15.136719 107.75 L 15.386719 107.769531 C 15.660156 107.8125 15.742188 107.855469 15.742188 108.042969 C 15.742188 108.230469 15.617188 108.394531 15.285156 108.8125 L 14.867188 109.355469 C 14.804688 109.292969 14.761719 109.230469 14.699219 109.167969 C 14.304688 108.644531 14.011719 108.144531 14.011719 107.980469 C 14.011719 107.832031 14.179688 107.769531 14.574219 107.75 L 14.574219 107.457031 L 11.574219 107.457031 L 11.574219 107.75 C 11.886719 107.8125 11.949219 107.855469 12.199219 108.230469 L 13.742188 110.582031 C 13.554688 110.8125 13.660156 110.6875 13.472656 110.917969 L 12.949219 111.605469 C 12.285156 112.5 12.035156 112.6875 11.597656 112.707031 L 11.597656 113 L 13.617188 113 L 13.617188 112.707031 C 13.199219 112.6875 13.035156 112.605469 13.035156 112.417969 C 13.035156 112.230469 13.324219 111.75 13.785156 111.1875 C 13.867188 111.105469 13.929688 111.019531 13.992188 110.957031 C 14.136719 111.207031 14.304688 111.457031 14.492188 111.707031 C 14.785156 112.125 14.886719 112.332031 14.886719 112.480469 C 14.886719 112.625 14.722656 112.6875 14.347656 112.707031 L 14.347656 113 Z M 17.242188 113 "/>
<path style=" stroke:none;fill-rule:nonzero;fill:rgb(0%,0%,0%);fill-opacity:1;" d="M 20.574219 118.332031 L 20.574219 118.207031 C 19.972656 118.207031 19.824219 118.0625 19.824219 117.730469 L 19.824219 112.957031 L 19.742188 112.917969 L 18.324219 113.644531 L 18.324219 113.769531 L 18.535156 113.6875 C 18.679688 113.625 18.804688 113.582031 18.886719 113.582031 C 19.054688 113.582031 19.136719 113.707031 19.136719 113.980469 L 19.136719 117.582031 C 19.136719 118.019531 18.972656 118.1875 18.367188 118.207031 L 18.367188 118.332031 Z M 20.574219 118.332031 "/>
<path style="fill-rule:nonzero;fill:rgb(69.803923%,85.09804%,100%);fill-opacity:1;stroke-width:1;stroke-linecap:round;stroke-linejoin:round;stroke:rgb(0%,0%,0%);stroke-opacity:1;stroke-miterlimit:10;" d="M 262.213867 213.796875 C 266.608398 218.188477 266.608398 225.313477 262.213867 229.702148 C 257.819336 234.09668 250.700195 234.09668 246.305664 229.702148 C 241.914062 225.313477 241.914062 218.188477 246.305664 213.796875 C 250.700195 209.402344 257.819336 209.402344 262.213867 213.796875 " transform="matrix(1.333333,0,0,1.333333,-9.333333,-232)"/>
<path style="fill:none;stroke-width:1;stroke-linecap:round;stroke-linejoin:round;stroke:rgb(0%,0%,0%);stroke-opacity:1;stroke-miterlimit:10;" d="M 105.926758 246.500977 L 128.426758 246.500977 L 128.426758 269.000977 L 105.926758 269.000977 Z M 105.926758 246.500977 " transform="matrix(1.333333,0,0,1.333333,-9.333333,-232)"/>
<path style=" stroke:none;fill-rule:nonzero;fill:rgb(0%,0%,0%);fill-opacity:1;" d="M 147.984375 113.667969 L 147.984375 113.375 C 147.546875 113.375 147.378906 113.167969 147.378906 112.625 L 147.378906 109.625 C 147.378906 108.667969 146.816406 108 145.816406 108 C 145.191406 108 144.652344 108.207031 144.066406 108.917969 L 144.066406 105.5625 L 141.753906 105.5625 L 141.753906 105.832031 C 142.296875 105.957031 142.402344 106 142.402344 106.582031 L 142.402344 112.605469 C 142.402344 113.269531 142.296875 113.269531 141.753906 113.375 L 141.753906 113.667969 L 144.628906 113.667969 L 144.628906 113.375 C 144.191406 113.3125 144.066406 113.144531 144.066406 112.644531 L 144.066406 109.5 C 144.066406 109.4375 144.152344 109.3125 144.277344 109.207031 C 144.527344 108.9375 144.816406 108.792969 145.109375 108.792969 C 145.566406 108.792969 145.714844 109.105469 145.714844 109.957031 L 145.714844 112.644531 C 145.714844 113.144531 145.566406 113.332031 145.171875 113.375 L 145.171875 113.667969 Z M 147.984375 113.667969 "/>
<path style=" stroke:none;fill-rule:nonzero;fill:rgb(0%,0%,0%);fill-opacity:1;" d="M 151.386719 117.667969 L 151.386719 117.542969 C 150.78125 117.542969 150.636719 117.394531 150.636719 117.0625 L 150.636719 112.292969 L 150.550781 112.25 L 149.136719 112.980469 L 149.136719 113.105469 L 149.34375 113.019531 C 149.488281 112.957031 149.613281 112.917969 149.699219 112.917969 C 149.863281 112.917969 149.949219 113.042969 149.949219 113.3125 L 149.949219 116.917969 C 149.949219 117.355469 149.78125 117.519531 149.175781 117.542969 L 149.175781 117.667969 Z M 151.386719 117.667969 "/>
<path style="fill:none;stroke-width:1;stroke-linecap:round;stroke-linejoin:round;stroke:rgb(0%,0%,0%);stroke-opacity:1;stroke-miterlimit:10;" d="M 128.426758 257.750977 L 132.44043 257.750977 M 150.041992 257.750977 L 150.956055 257.750977 " transform="matrix(1.333333,0,0,1.333333,-9.333333,-232)"/>
<path style="fill:none;stroke-width:1;stroke-linecap:butt;stroke-linejoin:miter;stroke:rgb(0%,0%,0%);stroke-opacity:1;stroke-miterlimit:10;" d="M 154.958008 257.750977 L 150.956055 257.750977 M 150.956055 256.250977 L 154.958008 257.750977 L 150.956055 259.250977 " transform="matrix(1.333333,0,0,1.333333,-9.333333,-232)"/>
<path style="fill:none;stroke-width:1;stroke-linecap:round;stroke-linejoin:round;stroke:rgb(0%,0%,0%);stroke-opacity:1;stroke-miterlimit:10;" d="M 128.426758 221.750977 L 136.946289 221.750977 M 147.944336 221.750977 L 151.055664 221.750977 " transform="matrix(1.333333,0,0,1.333333,-9.333333,-232)"/>
<path style="fill:none;stroke-width:1;stroke-linecap:butt;stroke-linejoin:miter;stroke:rgb(0%,0%,0%);stroke-opacity:1;stroke-miterlimit:10;" d="M 155.054688 221.750977 L 151.055664 221.750977 M 151.055664 220.250977 L 155.054688 221.750977 L 151.055664 223.250977 " transform="matrix(1.333333,0,0,1.333333,-9.333333,-232)"/>
<path style="fill:none;stroke-width:1;stroke-linecap:round;stroke-linejoin:round;stroke:rgb(0%,0%,0%);stroke-opacity:1;stroke-miterlimit:10;" d="M 8.171875 210.500977 L 30.671875 210.500977 L 30.671875 233.000977 L 8.171875 233.000977 Z M 8.171875 210.500977 " transform="matrix(1.333333,0,0,1.333333,-9.333333,-232)"/>
<path style=" stroke:none;fill-rule:nonzero;fill:rgb(0%,0%,0%);fill-opacity:1;" d="M 17.375 65 L 17.375 64.707031 C 17.1875 64.644531 17.105469 64.605469 17.023438 64.480469 L 15.230469 61.730469 L 16.4375 60.230469 C 16.667969 59.957031 16.917969 59.8125 17.292969 59.75 L 17.292969 59.457031 L 15.273438 59.457031 L 15.273438 59.75 L 15.523438 59.769531 C 15.792969 59.8125 15.875 59.855469 15.875 60.042969 C 15.875 60.230469 15.75 60.394531 15.417969 60.8125 L 15 61.355469 C 14.9375 61.292969 14.898438 61.230469 14.835938 61.167969 C 14.4375 60.644531 14.148438 60.144531 14.148438 59.980469 C 14.148438 59.832031 14.3125 59.769531 14.710938 59.75 L 14.710938 59.457031 L 11.710938 59.457031 L 11.710938 59.75 C 12.023438 59.8125 12.085938 59.855469 12.335938 60.230469 L 13.875 62.582031 C 13.6875 62.8125 13.792969 62.6875 13.605469 62.917969 L 13.085938 63.605469 C 12.417969 64.5 12.167969 64.6875 11.730469 64.707031 L 11.730469 65 L 13.75 65 L 13.75 64.707031 C 13.335938 64.6875 13.167969 64.605469 13.167969 64.417969 C 13.167969 64.230469 13.460938 63.75 13.917969 63.1875 C 14 63.105469 14.0625 63.019531 14.125 62.957031 C 14.273438 63.207031 14.4375 63.457031 14.625 63.707031 C 14.917969 64.125 15.023438 64.332031 15.023438 64.480469 C 15.023438 64.625 14.855469 64.6875 14.480469 64.707031 L 14.480469 65 Z M 17.375 65 "/>
<path style=" stroke:none;fill-rule:nonzero;fill:rgb(0%,0%,0%);fill-opacity:1;" d="M 21.355469 69.230469 L 21.25 69.1875 C 20.980469 69.644531 20.8125 69.730469 20.480469 69.730469 L 18.605469 69.730469 L 19.917969 68.3125 C 20.625 67.5625 20.9375 66.957031 20.9375 66.332031 C 20.9375 65.542969 20.375 64.917969 19.460938 64.917969 C 18.480469 64.917969 17.980469 65.582031 17.8125 66.519531 L 17.980469 66.5625 C 18.292969 65.769531 18.5625 65.519531 19.148438 65.519531 C 19.835938 65.519531 20.25 65.917969 20.25 66.644531 C 20.25 67.332031 19.980469 67.9375 19.210938 68.730469 L 17.792969 70.230469 L 17.792969 70.332031 L 20.917969 70.332031 Z M 21.355469 69.230469 "/>
<path style="fill:none;stroke-width:1;stroke-linecap:round;stroke-linejoin:round;stroke:rgb(0%,0%,0%);stroke-opacity:1;stroke-miterlimit:10;" d="M 8.171875 174.500977 L 30.671875 174.500977 L 30.671875 197.000977 L 8.171875 197.000977 Z M 8.171875 174.500977 " transform="matrix(1.333333,0,0,1.333333,-9.333333,-232)"/>
<path style=" stroke:none;fill-rule:nonzero;fill:rgb(0%,0%,0%);fill-opacity:1;" d="M 17.375 17 L 17.375 16.707031 C 17.1875 16.644531 17.105469 16.605469 17.023438 16.480469 L 15.230469 13.730469 L 16.4375 12.230469 C 16.667969 11.957031 16.917969 11.8125 17.292969 11.75 L 17.292969 11.457031 L 15.273438 11.457031 L 15.273438 11.75 L 15.523438 11.769531 C 15.792969 11.8125 15.875 11.855469 15.875 12.042969 C 15.875 12.230469 15.75 12.394531 15.417969 12.8125 L 15 13.355469 C 14.9375 13.292969 14.898438 13.230469 14.835938 13.167969 C 14.4375 12.644531 14.148438 12.144531 14.148438 11.980469 C 14.148438 11.832031 14.3125 11.769531 14.710938 11.75 L 14.710938 11.457031 L 11.710938 11.457031 L 11.710938 11.75 C 12.023438 11.8125 12.085938 11.855469 12.335938 12.230469 L 13.875 14.582031 C 13.6875 14.8125 13.792969 14.6875 13.605469 14.917969 L 13.085938 15.605469 C 12.417969 16.5 12.167969 16.6875 11.730469 16.707031 L 11.730469 17 L 13.75 17 L 13.75 16.707031 C 13.335938 16.6875 13.167969 16.605469 13.167969 16.417969 C 13.167969 16.230469 13.460938 15.75 13.917969 15.1875 C 14 15.105469 14.0625 15.019531 14.125 14.957031 C 14.273438 15.207031 14.4375 15.457031 14.625 15.707031 C 14.917969 16.125 15.023438 16.332031 15.023438 16.480469 C 15.023438 16.625 14.855469 16.6875 14.480469 16.707031 L 14.480469 17 Z M 17.375 17 "/>
<path style=" stroke:none;fill-rule:nonzero;fill:rgb(0%,0%,0%);fill-opacity:1;" d="M 18.042969 18.25 C 18.375 17.667969 18.75 17.394531 19.25 17.394531 C 19.773438 17.394531 20.105469 17.6875 20.105469 18.230469 C 20.105469 18.707031 19.855469 19.0625 19.460938 19.292969 C 19.292969 19.394531 19.085938 19.480469 18.792969 19.582031 L 18.792969 19.6875 C 19.25 19.6875 19.417969 19.707031 19.605469 19.769531 C 20.148438 19.9375 20.4375 20.332031 20.4375 20.9375 C 20.4375 21.605469 19.980469 22.167969 19.398438 22.167969 C 19.167969 22.167969 19 22.125 18.710938 21.917969 C 18.480469 21.75 18.355469 21.707031 18.210938 21.707031 C 18.042969 21.707031 17.898438 21.8125 17.898438 21.980469 C 17.898438 22.269531 18.210938 22.4375 18.792969 22.4375 C 19.5 22.4375 20.25 22.207031 20.648438 21.707031 C 20.875 21.394531 21.023438 21 21.023438 20.582031 C 21.023438 20.167969 20.875 19.792969 20.667969 19.542969 C 20.5 19.375 20.355469 19.269531 20 19.125 C 20.523438 18.8125 20.730469 18.394531 20.730469 18.019531 C 20.730469 17.375 20.230469 16.917969 19.5 16.917969 C 18.667969 16.917969 18.148438 17.457031 17.917969 18.230469 Z M 18.042969 18.25 "/>
<path style="fill:none;stroke-width:1;stroke-linecap:round;stroke-linejoin:round;stroke:rgb(0%,0%,0%);stroke-opacity:1;stroke-miterlimit:10;" d="M 105.926758 210.500977 L 128.426758 210.500977 L 128.426758 233.000977 L 105.926758 233.000977 Z M 105.926758 210.500977 " transform="matrix(1.333333,0,0,1.333333,-9.333333,-232)"/>
<path style=" stroke:none;fill-rule:nonzero;fill:rgb(0%,0%,0%);fill-opacity:1;" d="M 147.984375 65.667969 L 147.984375 65.375 C 147.546875 65.375 147.378906 65.167969 147.378906 64.625 L 147.378906 61.625 C 147.378906 60.667969 146.816406 60 145.816406 60 C 145.191406 60 144.652344 60.207031 144.066406 60.917969 L 144.066406 57.5625 L 141.753906 57.5625 L 141.753906 57.832031 C 142.296875 57.957031 142.402344 58 142.402344 58.582031 L 142.402344 64.605469 C 142.402344 65.269531 142.296875 65.269531 141.753906 65.375 L 141.753906 65.667969 L 144.628906 65.667969 L 144.628906 65.375 C 144.191406 65.3125 144.066406 65.144531 144.066406 64.644531 L 144.066406 61.5 C 144.066406 61.4375 144.152344 61.3125 144.277344 61.207031 C 144.527344 60.9375 144.816406 60.792969 145.109375 60.792969 C 145.566406 60.792969 145.714844 61.105469 145.714844 61.957031 L 145.714844 64.644531 C 145.714844 65.144531 145.566406 65.332031 145.171875 65.375 L 145.171875 65.667969 Z M 147.984375 65.667969 "/>
<path style=" stroke:none;fill-rule:nonzero;fill:rgb(0%,0%,0%);fill-opacity:1;" d="M 152.03125 68.5625 L 151.925781 68.519531 C 151.65625 68.980469 151.488281 69.0625 151.15625 69.0625 L 149.28125 69.0625 L 150.59375 67.644531 C 151.300781 66.894531 151.613281 66.292969 151.613281 65.667969 C 151.613281 64.875 151.050781 64.25 150.136719 64.25 C 149.15625 64.25 148.65625 64.917969 148.488281 65.855469 L 148.65625 65.894531 C 148.96875 65.105469 149.238281 64.855469 149.824219 64.855469 C 150.511719 64.855469 150.925781 65.25 150.925781 65.980469 C 150.925781 66.667969 150.65625 67.269531 149.886719 68.0625 L 148.46875 69.5625 L 148.46875 69.667969 L 151.59375 69.667969 Z M 152.03125 68.5625 "/>
<path style="fill:none;stroke-width:1;stroke-linecap:round;stroke-linejoin:round;stroke:rgb(0%,0%,0%);stroke-opacity:1;stroke-miterlimit:10;" d="M 106.026367 174.500977 L 128.526367 174.500977 L 128.526367 197.000977 L 106.026367 197.000977 Z M 106.026367 174.500977 " transform="matrix(1.333333,0,0,1.333333,-9.333333,-232)"/>
<path style=" stroke:none;fill-rule:nonzero;fill:rgb(0%,0%,0%);fill-opacity:1;" d="M 148.117188 17.667969 L 148.117188 17.375 C 147.679688 17.375 147.511719 17.167969 147.511719 16.625 L 147.511719 13.625 C 147.511719 12.667969 146.949219 12 145.949219 12 C 145.324219 12 144.785156 12.207031 144.199219 12.917969 L 144.199219 9.5625 L 141.886719 9.5625 L 141.886719 9.832031 C 142.429688 9.957031 142.535156 10 142.535156 10.582031 L 142.535156 16.605469 C 142.535156 17.269531 142.429688 17.269531 141.886719 17.375 L 141.886719 17.667969 L 144.761719 17.667969 L 144.761719 17.375 C 144.324219 17.3125 144.199219 17.144531 144.199219 16.644531 L 144.199219 13.5 C 144.199219 13.4375 144.285156 13.3125 144.410156 13.207031 C 144.660156 12.9375 144.949219 12.792969 145.242188 12.792969 C 145.699219 12.792969 145.847656 13.105469 145.847656 13.957031 L 145.847656 16.644531 C 145.847656 17.144531 145.699219 17.332031 145.304688 17.375 L 145.304688 17.667969 Z M 148.117188 17.667969 "/>
<path style=" stroke:none;fill-rule:nonzero;fill:rgb(0%,0%,0%);fill-opacity:1;" d="M 148.851562 17.582031 C 149.183594 17 149.558594 16.730469 150.058594 16.730469 C 150.582031 16.730469 150.914062 17.019531 150.914062 17.5625 C 150.914062 18.042969 150.664062 18.394531 150.269531 18.625 C 150.101562 18.730469 149.894531 18.8125 149.601562 18.917969 L 149.601562 19.019531 C 150.058594 19.019531 150.226562 19.042969 150.414062 19.105469 C 150.957031 19.269531 151.246094 19.667969 151.246094 20.269531 C 151.246094 20.9375 150.789062 21.5 150.207031 21.5 C 149.976562 21.5 149.808594 21.457031 149.519531 21.25 C 149.289062 21.082031 149.164062 21.042969 149.019531 21.042969 C 148.851562 21.042969 148.707031 21.144531 148.707031 21.3125 C 148.707031 21.605469 149.019531 21.769531 149.601562 21.769531 C 150.308594 21.769531 151.058594 21.542969 151.457031 21.042969 C 151.683594 20.730469 151.832031 20.332031 151.832031 19.917969 C 151.832031 19.5 151.683594 19.125 151.476562 18.875 C 151.308594 18.707031 151.164062 18.605469 150.808594 18.457031 C 151.332031 18.144531 151.539062 17.730469 151.539062 17.355469 C 151.539062 16.707031 151.039062 16.25 150.308594 16.25 C 149.476562 16.25 148.957031 16.792969 148.726562 17.5625 Z M 148.851562 17.582031 "/>
<path style="fill:none;stroke-width:1;stroke-linecap:round;stroke-linejoin:round;stroke:rgb(0%,0%,0%);stroke-opacity:1;stroke-miterlimit:10;" d="M 199.782227 246.500977 L 222.282227 246.500977 L 222.282227 269.000977 L 199.782227 269.000977 Z M 199.782227 246.500977 " transform="matrix(1.333333,0,0,1.333333,-9.333333,-232)"/>
<path style=" stroke:none;fill-rule:nonzero;fill:rgb(0%,0%,0%);fill-opacity:1;" d="M 272.753906 110.917969 C 272.753906 109.207031 271.605469 108 270.085938 108 C 268.503906 108 267.335938 109.1875 267.335938 110.9375 C 267.335938 112.625 268.542969 113.832031 270.042969 113.832031 C 271.585938 113.832031 272.753906 112.605469 272.753906 110.917969 Z M 271.003906 111.042969 C 271.003906 112.832031 270.753906 113.457031 270.066406 113.457031 C 269.355469 113.457031 269.105469 112.792969 269.105469 111.042969 C 269.105469 109 269.316406 108.355469 270.066406 108.355469 C 270.773438 108.355469 271.003906 109 271.003906 111.042969 Z M 271.003906 111.042969 "/>
<path style=" stroke:none;fill-rule:nonzero;fill:rgb(0%,0%,0%);fill-opacity:1;" d="M 276.191406 117.667969 L 276.191406 117.542969 C 275.585938 117.542969 275.441406 117.394531 275.441406 117.0625 L 275.441406 112.292969 L 275.355469 112.25 L 273.941406 112.980469 L 273.941406 113.105469 L 274.148438 113.019531 C 274.292969 112.957031 274.417969 112.917969 274.503906 112.917969 C 274.667969 112.917969 274.753906 113.042969 274.753906 113.3125 L 274.753906 116.917969 C 274.753906 117.355469 274.585938 117.519531 273.980469 117.542969 L 273.980469 117.667969 Z M 276.191406 117.667969 "/>
<path style="fill:none;stroke-width:1;stroke-linecap:round;stroke-linejoin:round;stroke:rgb(0%,0%,0%);stroke-opacity:1;stroke-miterlimit:10;" d="M 199.984375 210.500977 L 222.484375 210.500977 L 222.484375 233.000977 L 199.984375 233.000977 Z M 199.984375 210.500977 " transform="matrix(1.333333,0,0,1.333333,-9.333333,-232)"/>
<path style=" stroke:none;fill-rule:nonzero;fill:rgb(0%,0%,0%);fill-opacity:1;" d="M 273.019531 62.917969 C 273.019531 61.207031 271.871094 60 270.351562 60 C 268.769531 60 267.601562 61.1875 267.601562 62.9375 C 267.601562 64.625 268.808594 65.832031 270.308594 65.832031 C 271.851562 65.832031 273.019531 64.605469 273.019531 62.917969 Z M 271.269531 63.042969 C 271.269531 64.832031 271.019531 65.457031 270.332031 65.457031 C 269.621094 65.457031 269.371094 64.792969 269.371094 63.042969 C 269.371094 61 269.582031 60.355469 270.332031 60.355469 C 271.039062 60.355469 271.269531 61 271.269531 63.042969 Z M 271.269531 63.042969 "/>
<path style=" stroke:none;fill-rule:nonzero;fill:rgb(0%,0%,0%);fill-opacity:1;" d="M 277.101562 68.5625 L 276.996094 68.519531 C 276.726562 68.980469 276.558594 69.0625 276.226562 69.0625 L 274.351562 69.0625 L 275.664062 67.644531 C 276.371094 66.894531 276.683594 66.292969 276.683594 65.667969 C 276.683594 64.875 276.121094 64.25 275.207031 64.25 C 274.226562 64.25 273.726562 64.917969 273.558594 65.855469 L 273.726562 65.894531 C 274.039062 65.105469 274.308594 64.855469 274.894531 64.855469 C 275.582031 64.855469 275.996094 65.25 275.996094 65.980469 C 275.996094 66.667969 275.726562 67.269531 274.957031 68.0625 L 273.539062 69.5625 L 273.539062 69.667969 L 276.664062 69.667969 Z M 277.101562 68.5625 "/>
<path style="fill:none;stroke-width:1;stroke-linecap:round;stroke-linejoin:round;stroke:rgb(0%,0%,0%);stroke-opacity:1;stroke-miterlimit:10;" d="M 199.881836 174.500977 L 222.381836 174.500977 L 222.381836 197.000977 L 199.881836 197.000977 Z M 199.881836 174.500977 " transform="matrix(1.333333,0,0,1.333333,-9.333333,-232)"/>
<path style=" stroke:none;fill-rule:nonzero;fill:rgb(0%,0%,0%);fill-opacity:1;" d="M 272.886719 14.917969 C 272.886719 13.207031 271.738281 12 270.21875 12 C 268.636719 12 267.46875 13.1875 267.46875 14.9375 C 267.46875 16.625 268.675781 17.832031 270.175781 17.832031 C 271.71875 17.832031 272.886719 16.605469 272.886719 14.917969 Z M 271.136719 15.042969 C 271.136719 16.832031 270.886719 17.457031 270.199219 17.457031 C 269.488281 17.457031 269.238281 16.792969 269.238281 15.042969 C 269.238281 13 269.449219 12.355469 270.199219 12.355469 C 270.90625 12.355469 271.136719 13 271.136719 15.042969 Z M 271.136719 15.042969 "/>
<path style=" stroke:none;fill-rule:nonzero;fill:rgb(0%,0%,0%);fill-opacity:1;" d="M 273.65625 17.582031 C 273.988281 17 274.363281 16.730469 274.863281 16.730469 C 275.386719 16.730469 275.71875 17.019531 275.71875 17.5625 C 275.71875 18.042969 275.46875 18.394531 275.074219 18.625 C 274.90625 18.730469 274.699219 18.8125 274.40625 18.917969 L 274.40625 19.019531 C 274.863281 19.019531 275.03125 19.042969 275.21875 19.105469 C 275.761719 19.269531 276.050781 19.667969 276.050781 20.269531 C 276.050781 20.9375 275.59375 21.5 275.011719 21.5 C 274.78125 21.5 274.613281 21.457031 274.324219 21.25 C 274.09375 21.082031 273.96875 21.042969 273.824219 21.042969 C 273.65625 21.042969 273.511719 21.144531 273.511719 21.3125 C 273.511719 21.605469 273.824219 21.769531 274.40625 21.769531 C 275.113281 21.769531 275.863281 21.542969 276.261719 21.042969 C 276.488281 20.730469 276.636719 20.332031 276.636719 19.917969 C 276.636719 19.5 276.488281 19.125 276.28125 18.875 C 276.113281 18.707031 275.96875 18.605469 275.613281 18.457031 C 276.136719 18.144531 276.34375 17.730469 276.34375 17.355469 C 276.34375 16.707031 275.84375 16.25 275.113281 16.25 C 274.28125 16.25 273.761719 16.792969 273.53125 17.5625 Z M 273.65625 17.582031 "/>
<path style="fill:none;stroke-width:1;stroke-linecap:round;stroke-linejoin:round;stroke:rgb(0%,0%,0%);stroke-opacity:1;stroke-miterlimit:10;" d="M 286.038086 246.500977 L 308.538086 246.500977 L 308.538086 269.000977 L 286.038086 269.000977 Z M 286.038086 246.500977 " transform="matrix(1.333333,0,0,1.333333,-9.333333,-232)"/>
<path style=" stroke:none;fill-rule:nonzero;fill:rgb(0%,0%,0%);fill-opacity:1;" d="M 387.757812 107.605469 L 386.15625 107.605469 L 386.15625 107.769531 C 386.53125 107.769531 386.695312 107.875 386.695312 108.0625 C 386.695312 108.125 386.695312 108.207031 386.65625 108.292969 L 385.488281 111.605469 L 384.15625 108.605469 C 384.070312 108.4375 383.988281 108.230469 383.988281 108.105469 C 383.988281 107.894531 384.15625 107.8125 384.675781 107.769531 L 384.675781 107.605469 L 382.21875 107.605469 L 382.21875 107.769531 C 382.53125 107.8125 382.738281 107.917969 382.863281 108.1875 L 384.445312 111.5625 C 384.675781 112.042969 384.945312 112.605469 384.945312 112.792969 C 384.945312 112.980469 384.695312 113.730469 384.46875 114.082031 C 384.28125 114.375 384.03125 114.605469 383.863281 114.605469 C 383.800781 114.605469 383.675781 114.605469 383.550781 114.519531 C 383.34375 114.394531 383.132812 114.375 382.925781 114.375 C 382.632812 114.375 382.40625 114.625 382.40625 114.917969 C 382.40625 115.3125 382.738281 115.625 383.257812 115.625 C 384.15625 115.625 384.71875 115 385.34375 113.292969 L 387.15625 108.394531 C 387.320312 107.957031 387.46875 107.8125 387.757812 107.769531 Z M 387.757812 107.605469 "/>
<path style=" stroke:none;fill-rule:nonzero;fill:rgb(0%,0%,0%);fill-opacity:1;" d="M 391.195312 118.332031 L 391.195312 118.207031 C 390.59375 118.207031 390.445312 118.0625 390.445312 117.730469 L 390.445312 112.957031 L 390.363281 112.917969 L 388.945312 113.644531 L 388.945312 113.769531 L 389.15625 113.6875 C 389.300781 113.625 389.425781 113.582031 389.507812 113.582031 C 389.675781 113.582031 389.757812 113.707031 389.757812 113.980469 L 389.757812 117.582031 C 389.757812 118.019531 389.59375 118.1875 388.988281 118.207031 L 388.988281 118.332031 Z M 391.195312 118.332031 "/>
<path style="fill:none;stroke-width:1;stroke-linecap:round;stroke-linejoin:round;stroke:rgb(0%,0%,0%);stroke-opacity:1;stroke-miterlimit:10;" d="M 286.038086 210.500977 L 308.538086 210.500977 L 308.538086 233.000977 L 286.038086 233.000977 Z M 286.038086 210.500977 " transform="matrix(1.333333,0,0,1.333333,-9.333333,-232)"/>
<path style=" stroke:none;fill-rule:nonzero;fill:rgb(0%,0%,0%);fill-opacity:1;" d="M 387.757812 59.605469 L 386.15625 59.605469 L 386.15625 59.769531 C 386.53125 59.769531 386.695312 59.875 386.695312 60.0625 C 386.695312 60.125 386.695312 60.207031 386.65625 60.292969 L 385.488281 63.605469 L 384.15625 60.605469 C 384.070312 60.4375 383.988281 60.230469 383.988281 60.105469 C 383.988281 59.894531 384.15625 59.8125 384.675781 59.769531 L 384.675781 59.605469 L 382.21875 59.605469 L 382.21875 59.769531 C 382.53125 59.8125 382.738281 59.917969 382.863281 60.1875 L 384.445312 63.5625 C 384.675781 64.042969 384.945312 64.605469 384.945312 64.792969 C 384.945312 64.980469 384.695312 65.730469 384.46875 66.082031 C 384.28125 66.375 384.03125 66.605469 383.863281 66.605469 C 383.800781 66.605469 383.675781 66.605469 383.550781 66.519531 C 383.34375 66.394531 383.132812 66.375 382.925781 66.375 C 382.632812 66.375 382.40625 66.625 382.40625 66.917969 C 382.40625 67.3125 382.738281 67.625 383.257812 67.625 C 384.15625 67.625 384.71875 67 385.34375 65.292969 L 387.15625 60.394531 C 387.320312 59.957031 387.46875 59.8125 387.757812 59.769531 Z M 387.757812 59.605469 "/>
<path style=" stroke:none;fill-rule:nonzero;fill:rgb(0%,0%,0%);fill-opacity:1;" d="M 391.84375 69.230469 L 391.738281 69.1875 C 391.46875 69.644531 391.300781 69.730469 390.96875 69.730469 L 389.09375 69.730469 L 390.40625 68.3125 C 391.113281 67.5625 391.425781 66.957031 391.425781 66.332031 C 391.425781 65.542969 390.863281 64.917969 389.945312 64.917969 C 388.96875 64.917969 388.46875 65.582031 388.300781 66.519531 L 388.46875 66.5625 C 388.78125 65.769531 389.050781 65.519531 389.632812 65.519531 C 390.320312 65.519531 390.738281 65.917969 390.738281 66.644531 C 390.738281 67.332031 390.46875 67.9375 389.695312 68.730469 L 388.28125 70.230469 L 388.28125 70.332031 L 391.40625 70.332031 Z M 391.84375 69.230469 "/>
<path style="fill:none;stroke-width:1;stroke-linecap:round;stroke-linejoin:round;stroke:rgb(0%,0%,0%);stroke-opacity:1;stroke-miterlimit:10;" d="M 285.739258 174.500977 L 308.239258 174.500977 L 308.239258 197.000977 L 285.739258 197.000977 Z M 285.739258 174.500977 " transform="matrix(1.333333,0,0,1.333333,-9.333333,-232)"/>
<path style=" stroke:none;fill-rule:nonzero;fill:rgb(0%,0%,0%);fill-opacity:1;" d="M 387.359375 11.605469 L 385.753906 11.605469 L 385.753906 11.769531 C 386.128906 11.769531 386.296875 11.875 386.296875 12.0625 C 386.296875 12.125 386.296875 12.207031 386.253906 12.292969 L 385.089844 15.605469 L 383.753906 12.605469 C 383.671875 12.4375 383.589844 12.230469 383.589844 12.105469 C 383.589844 11.894531 383.753906 11.8125 384.277344 11.769531 L 384.277344 11.605469 L 381.816406 11.605469 L 381.816406 11.769531 C 382.128906 11.8125 382.339844 11.917969 382.464844 12.1875 L 384.046875 15.5625 C 384.277344 16.042969 384.546875 16.605469 384.546875 16.792969 C 384.546875 16.980469 384.296875 17.730469 384.066406 18.082031 C 383.878906 18.375 383.628906 18.605469 383.464844 18.605469 C 383.402344 18.605469 383.277344 18.605469 383.152344 18.519531 C 382.941406 18.394531 382.734375 18.375 382.527344 18.375 C 382.234375 18.375 382.003906 18.625 382.003906 18.917969 C 382.003906 19.3125 382.339844 19.625 382.859375 19.625 C 383.753906 19.625 384.316406 19 384.941406 17.292969 L 386.753906 12.394531 C 386.921875 11.957031 387.066406 11.8125 387.359375 11.769531 Z M 387.359375 11.605469 "/>
<path style=" stroke:none;fill-rule:nonzero;fill:rgb(0%,0%,0%);fill-opacity:1;" d="M 388.128906 18.25 C 388.464844 17.667969 388.839844 17.394531 389.339844 17.394531 C 389.859375 17.394531 390.191406 17.6875 390.191406 18.230469 C 390.191406 18.707031 389.941406 19.0625 389.546875 19.292969 C 389.378906 19.394531 389.171875 19.480469 388.878906 19.582031 L 388.878906 19.6875 C 389.339844 19.6875 389.503906 19.707031 389.691406 19.769531 C 390.234375 19.9375 390.527344 20.332031 390.527344 20.9375 C 390.527344 21.605469 390.066406 22.167969 389.484375 22.167969 C 389.253906 22.167969 389.089844 22.125 388.796875 21.917969 C 388.566406 21.75 388.441406 21.707031 388.296875 21.707031 C 388.128906 21.707031 387.984375 21.8125 387.984375 21.980469 C 387.984375 22.269531 388.296875 22.4375 388.878906 22.4375 C 389.589844 22.4375 390.339844 22.207031 390.734375 21.707031 C 390.964844 21.394531 391.109375 21 391.109375 20.582031 C 391.109375 20.167969 390.964844 19.792969 390.753906 19.542969 C 390.589844 19.375 390.441406 19.269531 390.089844 19.125 C 390.609375 18.8125 390.816406 18.394531 390.816406 18.019531 C 390.816406 17.375 390.316406 16.917969 389.589844 16.917969 C 388.753906 16.917969 388.234375 17.457031 388.003906 18.230469 Z M 388.128906 18.25 "/>
<path style="fill:none;stroke-width:1;stroke-linecap:round;stroke-linejoin:round;stroke:rgb(0%,0%,0%);stroke-opacity:1;stroke-miterlimit:10;" d="M 105.926758 282.500977 L 128.426758 282.500977 L 128.426758 305.000977 L 105.926758 305.000977 Z M 105.926758 282.500977 " transform="matrix(1.333333,0,0,1.333333,-9.333333,-232)"/>
<path style=" stroke:none;fill-rule:nonzero;fill:rgb(0%,0%,0%);fill-opacity:1;" d="M 147.984375 161.667969 L 147.984375 161.375 C 147.546875 161.375 147.378906 161.167969 147.378906 160.625 L 147.378906 157.625 C 147.378906 156.667969 146.816406 156 145.816406 156 C 145.191406 156 144.652344 156.207031 144.066406 156.917969 L 144.066406 153.5625 L 141.753906 153.5625 L 141.753906 153.832031 C 142.296875 153.957031 142.402344 154 142.402344 154.582031 L 142.402344 160.605469 C 142.402344 161.269531 142.296875 161.269531 141.753906 161.375 L 141.753906 161.667969 L 144.628906 161.667969 L 144.628906 161.375 C 144.191406 161.3125 144.066406 161.144531 144.066406 160.644531 L 144.066406 157.5 C 144.066406 157.4375 144.152344 157.3125 144.277344 157.207031 C 144.527344 156.9375 144.816406 156.792969 145.109375 156.792969 C 145.566406 156.792969 145.714844 157.105469 145.714844 157.957031 L 145.714844 160.644531 C 145.714844 161.144531 145.566406 161.332031 145.171875 161.375 L 145.171875 161.667969 Z M 147.984375 161.667969 "/>
<path style=" stroke:none;fill-rule:nonzero;fill:rgb(0%,0%,0%);fill-opacity:1;" d="M 152.050781 163.019531 C 152.050781 161.394531 151.324219 160.25 150.28125 160.25 C 148.988281 160.25 148.425781 161.5625 148.425781 162.980469 C 148.425781 164.292969 148.863281 165.769531 150.238281 165.769531 C 151.550781 165.769531 152.050781 164.394531 152.050781 163.019531 Z M 151.28125 163.0625 C 151.28125 164.644531 150.925781 165.5625 150.238281 165.5625 C 149.550781 165.5625 149.199219 164.667969 149.199219 163.042969 C 149.199219 161.417969 149.550781 160.457031 150.21875 160.457031 C 150.925781 160.457031 151.28125 161.394531 151.28125 163.0625 Z M 151.28125 163.0625 "/>
<path style="fill-rule:nonzero;fill:rgb(40.000001%,74.901962%,100%);fill-opacity:1;stroke-width:1;stroke-linecap:round;stroke-linejoin:round;stroke:rgb(0%,0%,0%);stroke-opacity:1;stroke-miterlimit:10;" d="M 154.208008 282.500977 L 182.204102 282.500977 L 182.204102 305.000977 L 154.208008 305.000977 Z M 154.208008 282.500977 " transform="matrix(1.333333,0,0,1.333333,-9.333333,-232)"/>
<path style=" stroke:none;fill-rule:nonzero;fill:rgb(0%,0%,0%);fill-opacity:1;" d="M 216.710938 153.5625 L 214.523438 153.5625 L 214.523438 153.855469 C 215.167969 153.894531 215.355469 154.019531 215.355469 154.375 C 215.355469 154.542969 215.335938 154.707031 215.273438 154.894531 L 213.917969 159 L 212.628906 154.980469 C 212.503906 154.5625 212.460938 154.417969 212.460938 154.292969 C 212.460938 154.019531 212.648438 153.894531 213.167969 153.875 L 213.335938 153.855469 L 213.335938 153.5625 L 209.585938 153.5625 L 209.585938 153.855469 C 210.085938 153.875 210.335938 153.980469 210.441406 154.269531 L 210.878906 155.417969 L 209.460938 159.125 L 208.003906 154.75 C 207.941406 154.542969 207.917969 154.457031 207.917969 154.355469 C 207.917969 154.019531 208.066406 153.894531 208.691406 153.855469 L 208.691406 153.5625 L 205.167969 153.5625 L 205.167969 153.855469 C 205.667969 153.917969 205.792969 154.042969 206.003906 154.625 L 208.542969 161.855469 L 208.878906 161.855469 L 211.105469 156.125 L 213.167969 161.855469 L 213.480469 161.855469 L 215.878906 154.625 C 216.042969 154.144531 216.316406 153.894531 216.710938 153.855469 Z M 216.710938 153.5625 "/>
<path style=" stroke:none;fill-rule:nonzero;fill:rgb(0%,0%,0%);fill-opacity:1;" d="M 220.816406 162.25 L 220.230469 162.25 L 220.105469 162.625 C 220.023438 162.269531 219.816406 162.144531 219.480469 162.144531 C 218.398438 162.144531 217.148438 163.5625 217.148438 164.832031 C 217.148438 165.394531 217.441406 165.75 217.941406 165.75 C 218.566406 165.75 218.960938 165.457031 219.605469 164.4375 L 218.878906 166.769531 C 218.792969 167.0625 218.667969 167.1875 218.148438 167.207031 L 218.148438 167.332031 L 220.042969 167.332031 L 220.042969 167.207031 L 219.941406 167.207031 C 219.628906 167.207031 219.480469 167.125 219.480469 166.957031 C 219.480469 166.9375 219.480469 166.917969 219.480469 166.875 Z M 219.980469 162.792969 C 219.980469 163.457031 219.460938 164.5625 218.898438 165.042969 C 218.691406 165.230469 218.460938 165.332031 218.253906 165.332031 C 217.960938 165.332031 217.835938 165.082031 217.835938 164.707031 C 217.835938 164.042969 218.210938 163.230469 218.773438 162.707031 C 219.023438 162.457031 219.273438 162.3125 219.503906 162.3125 C 219.773438 162.3125 219.980469 162.519531 219.980469 162.792969 Z M 219.980469 162.792969 "/>
<path style=" stroke:none;fill-rule:nonzero;fill:rgb(0%,0%,0%);fill-opacity:1;" d="M 224.667969 164.730469 C 224.230469 165.269531 224.128906 165.355469 224.003906 165.355469 C 223.941406 165.355469 223.878906 165.292969 223.878906 165.207031 C 223.878906 165.125 224.003906 164.625 224.148438 164.207031 C 224.378906 163.457031 224.523438 162.875 224.523438 162.667969 C 224.523438 162.375 224.378906 162.144531 224.003906 162.144531 C 223.503906 162.144531 222.878906 162.667969 222.167969 163.832031 L 223.128906 160.25 L 223.085938 160.207031 C 222.605469 160.3125 222.292969 160.355469 221.816406 160.417969 L 221.816406 160.542969 L 222.042969 160.542969 C 222.191406 160.542969 222.355469 160.605469 222.355469 160.730469 C 222.355469 160.855469 222.316406 160.980469 222.253906 161.230469 L 221.085938 165.667969 L 221.691406 165.667969 C 222.003906 164.4375 222.148438 164.144531 222.460938 163.667969 C 222.878906 163.042969 223.398438 162.542969 223.667969 162.542969 C 223.855469 162.542969 223.898438 162.625 223.898438 162.75 C 223.898438 162.769531 223.878906 162.875 223.835938 163.019531 L 223.398438 164.667969 C 223.292969 165.0625 223.253906 165.3125 223.253906 165.394531 C 223.253906 165.605469 223.378906 165.730469 223.585938 165.730469 C 224.003906 165.730469 224.273438 165.519531 224.773438 164.832031 Z M 224.667969 164.730469 "/>
<path style="fill-rule:nonzero;fill:rgb(40.000001%,74.901962%,100%);fill-opacity:1;stroke-width:1;stroke-linecap:round;stroke-linejoin:round;stroke:rgb(0%,0%,0%);stroke-opacity:1;stroke-miterlimit:10;" d="M 45.226562 282.500977 L 95.476562 282.500977 L 95.476562 305.000977 L 45.226562 305.000977 Z M 45.226562 282.500977 " transform="matrix(1.333333,0,0,1.333333,-9.333333,-232)"/>
<path style=" stroke:none;fill-rule:nonzero;fill:rgb(0%,0%,0%);fill-opacity:1;" d="M 72.292969 152.894531 L 70.105469 152.894531 L 70.105469 153.1875 C 70.753906 153.230469 70.941406 153.355469 70.941406 153.707031 C 70.941406 153.875 70.917969 154.042969 70.855469 154.230469 L 69.503906 158.332031 L 68.210938 154.3125 C 68.085938 153.894531 68.042969 153.75 68.042969 153.625 C 68.042969 153.355469 68.230469 153.230469 68.753906 153.207031 L 68.917969 153.1875 L 68.917969 152.894531 L 65.167969 152.894531 L 65.167969 153.1875 C 65.667969 153.207031 65.917969 153.3125 66.023438 153.605469 L 66.460938 154.75 L 65.042969 158.457031 L 63.585938 154.082031 C 63.523438 153.875 63.503906 153.792969 63.503906 153.6875 C 63.503906 153.355469 63.648438 153.230469 64.273438 153.1875 L 64.273438 152.894531 L 60.753906 152.894531 L 60.753906 153.1875 C 61.253906 153.25 61.378906 153.375 61.585938 153.957031 L 64.128906 161.1875 L 64.460938 161.1875 L 66.691406 155.457031 L 68.753906 161.1875 L 69.066406 161.1875 L 71.460938 153.957031 C 71.628906 153.480469 71.898438 153.230469 72.292969 153.1875 Z M 72.292969 152.894531 "/>
<path style=" stroke:none;fill-rule:nonzero;fill:rgb(0%,0%,0%);fill-opacity:1;" d="M 76.253906 164.0625 C 75.816406 164.605469 75.710938 164.6875 75.585938 164.6875 C 75.523438 164.6875 75.460938 164.625 75.460938 164.542969 C 75.460938 164.457031 75.585938 163.957031 75.730469 163.542969 C 75.960938 162.792969 76.105469 162.207031 76.105469 162 C 76.105469 161.707031 75.960938 161.480469 75.585938 161.480469 C 75.085938 161.480469 74.460938 162 73.753906 163.167969 L 74.710938 159.582031 L 74.667969 159.542969 C 74.191406 159.644531 73.878906 159.6875 73.398438 159.75 L 73.398438 159.875 L 73.628906 159.875 C 73.773438 159.875 73.941406 159.9375 73.941406 160.0625 C 73.941406 160.1875 73.898438 160.3125 73.835938 160.5625 L 72.667969 165 L 73.273438 165 C 73.585938 163.769531 73.730469 163.480469 74.042969 163 C 74.460938 162.375 74.980469 161.875 75.253906 161.875 C 75.441406 161.875 75.480469 161.957031 75.480469 162.082031 C 75.480469 162.105469 75.460938 162.207031 75.417969 162.355469 L 74.980469 164 C 74.878906 164.394531 74.835938 164.644531 74.835938 164.730469 C 74.835938 164.9375 74.960938 165.0625 75.167969 165.0625 C 75.585938 165.0625 75.855469 164.855469 76.355469 164.167969 Z M 76.253906 164.0625 "/>
<path style=" stroke:none;fill-rule:nonzero;fill:rgb(0%,0%,0%);fill-opacity:1;" d="M 78.460938 162.167969 C 78.355469 161.625 78.253906 161.480469 78.066406 161.480469 C 77.878906 161.480469 77.605469 161.519531 77.128906 161.707031 L 77.042969 161.730469 L 77.066406 161.855469 L 77.210938 161.832031 C 77.355469 161.792969 77.460938 161.769531 77.523438 161.769531 C 77.710938 161.769531 77.773438 161.832031 77.878906 162.3125 L 78.105469 163.3125 L 77.460938 164.230469 C 77.273438 164.480469 77.128906 164.625 77.042969 164.625 C 77.003906 164.625 76.917969 164.605469 76.835938 164.542969 C 76.730469 164.5 76.648438 164.457031 76.585938 164.457031 C 76.417969 164.457031 76.316406 164.582031 76.316406 164.75 C 76.316406 164.957031 76.460938 165.082031 76.710938 165.082031 C 76.960938 165.082031 77.105469 165.019531 77.460938 164.542969 L 78.167969 163.582031 L 78.398438 164.542969 C 78.503906 164.9375 78.628906 165.082031 78.878906 165.082031 C 79.167969 165.082031 79.378906 164.894531 79.855469 164.167969 L 79.730469 164.105469 C 79.667969 164.1875 79.628906 164.230469 79.566406 164.332031 C 79.378906 164.5625 79.292969 164.644531 79.191406 164.644531 C 79.066406 164.644531 79.003906 164.542969 78.941406 164.3125 L 78.691406 163.25 C 78.648438 163.0625 78.628906 162.9375 78.628906 162.894531 C 78.980469 162.269531 79.273438 161.917969 79.417969 161.917969 C 79.605469 161.917969 79.667969 162.0625 79.835938 162.0625 C 79.980469 162.0625 80.105469 161.9375 80.105469 161.769531 C 80.105469 161.582031 79.960938 161.480469 79.773438 161.480469 C 79.417969 161.480469 79.128906 161.75 78.566406 162.625 Z M 78.460938 162.167969 "/>
<path style=" stroke:none;fill-rule:nonzero;fill:rgb(0%,0%,0%);fill-opacity:1;" d="M 83.097656 163.167969 C 84.492188 162.4375 85.074219 161.5625 85.074219 160.542969 C 85.074219 159.6875 84.636719 159.144531 83.886719 159.144531 C 83.285156 159.144531 82.867188 159.542969 82.867188 160.167969 C 82.867188 160.707031 83.242188 161.0625 83.761719 161.0625 C 83.867188 161.0625 83.949219 161.042969 84.035156 161.042969 C 84.179688 161.042969 84.261719 161.144531 84.261719 161.292969 C 84.261719 161.769531 83.867188 162.269531 82.949219 162.894531 Z M 83.097656 163.167969 "/>
<path style=" stroke:none;fill-rule:nonzero;fill:rgb(0%,0%,0%);fill-opacity:1;" d="M 100.179688 152.894531 L 97.992188 152.894531 L 97.992188 153.1875 C 98.636719 153.230469 98.824219 153.355469 98.824219 153.707031 C 98.824219 153.875 98.804688 154.042969 98.742188 154.230469 L 97.386719 158.332031 L 96.097656 154.3125 C 95.972656 153.894531 95.929688 153.75 95.929688 153.625 C 95.929688 153.355469 96.117188 153.230469 96.636719 153.207031 L 96.804688 153.1875 L 96.804688 152.894531 L 93.054688 152.894531 L 93.054688 153.1875 C 93.554688 153.207031 93.804688 153.3125 93.910156 153.605469 L 94.347656 154.75 L 92.929688 158.457031 L 91.472656 154.082031 C 91.410156 153.875 91.386719 153.792969 91.386719 153.6875 C 91.386719 153.355469 91.535156 153.230469 92.160156 153.1875 L 92.160156 152.894531 L 88.636719 152.894531 L 88.636719 153.1875 C 89.136719 153.25 89.261719 153.375 89.472656 153.957031 L 92.011719 161.1875 L 92.347656 161.1875 L 94.574219 155.457031 L 96.636719 161.1875 L 96.949219 161.1875 L 99.347656 153.957031 C 99.511719 153.480469 99.785156 153.230469 100.179688 153.1875 Z M 100.179688 152.894531 "/>
<path style=" stroke:none;fill-rule:nonzero;fill:rgb(0%,0%,0%);fill-opacity:1;" d="M 104.136719 164.0625 C 103.699219 164.605469 103.597656 164.6875 103.472656 164.6875 C 103.410156 164.6875 103.347656 164.625 103.347656 164.542969 C 103.347656 164.457031 103.472656 163.957031 103.617188 163.542969 C 103.847656 162.792969 103.992188 162.207031 103.992188 162 C 103.992188 161.707031 103.847656 161.480469 103.472656 161.480469 C 102.972656 161.480469 102.347656 162 101.636719 163.167969 L 102.597656 159.582031 L 102.554688 159.542969 C 102.074219 159.644531 101.761719 159.6875 101.285156 159.75 L 101.285156 159.875 L 101.511719 159.875 C 101.660156 159.875 101.824219 159.9375 101.824219 160.0625 C 101.824219 160.1875 101.785156 160.3125 101.722656 160.5625 L 100.554688 165 L 101.160156 165 C 101.472656 163.769531 101.617188 163.480469 101.929688 163 C 102.347656 162.375 102.867188 161.875 103.136719 161.875 C 103.324219 161.875 103.367188 161.957031 103.367188 162.082031 C 103.367188 162.105469 103.347656 162.207031 103.304688 162.355469 L 102.867188 164 C 102.761719 164.394531 102.722656 164.644531 102.722656 164.730469 C 102.722656 164.9375 102.847656 165.0625 103.054688 165.0625 C 103.472656 165.0625 103.742188 164.855469 104.242188 164.167969 Z M 104.136719 164.0625 "/>
<path style=" stroke:none;fill-rule:nonzero;fill:rgb(0%,0%,0%);fill-opacity:1;" d="M 108.136719 164.0625 C 107.699219 164.605469 107.597656 164.6875 107.472656 164.6875 C 107.410156 164.6875 107.347656 164.625 107.347656 164.542969 C 107.347656 164.457031 107.472656 163.957031 107.617188 163.542969 C 107.847656 162.792969 107.992188 162.207031 107.992188 162 C 107.992188 161.707031 107.847656 161.480469 107.472656 161.480469 C 106.972656 161.480469 106.347656 162 105.636719 163.167969 L 106.597656 159.582031 L 106.554688 159.542969 C 106.074219 159.644531 105.761719 159.6875 105.285156 159.75 L 105.285156 159.875 L 105.511719 159.875 C 105.660156 159.875 105.824219 159.9375 105.824219 160.0625 C 105.824219 160.1875 105.785156 160.3125 105.722656 160.5625 L 104.554688 165 L 105.160156 165 C 105.472656 163.769531 105.617188 163.480469 105.929688 163 C 106.347656 162.375 106.867188 161.875 107.136719 161.875 C 107.324219 161.875 107.367188 161.957031 107.367188 162.082031 C 107.367188 162.105469 107.347656 162.207031 107.304688 162.355469 L 106.867188 164 C 106.761719 164.394531 106.722656 164.644531 106.722656 164.730469 C 106.722656 164.9375 106.847656 165.0625 107.054688 165.0625 C 107.472656 165.0625 107.742188 164.855469 108.242188 164.167969 Z M 108.136719 164.0625 "/>
<path style="fill:none;stroke-width:1;stroke-linecap:round;stroke-linejoin:round;stroke:rgb(0%,0%,0%);stroke-opacity:1;stroke-miterlimit:10;" d="M 30.575195 257.750977 L 34.75293 257.750977 M 52.864258 257.750977 L 53.101562 257.750977 " transform="matrix(1.333333,0,0,1.333333,-9.333333,-232)"/>
<path style="fill:none;stroke-width:1;stroke-linecap:butt;stroke-linejoin:miter;stroke:rgb(0%,0%,0%);stroke-opacity:1;stroke-miterlimit:10;" d="M 57.100586 257.750977 L 53.101562 257.750977 M 53.101562 256.250977 L 57.100586 257.750977 L 53.101562 259.250977 " transform="matrix(1.333333,0,0,1.333333,-9.333333,-232)"/>
<path style="fill:none;stroke-width:1;stroke-linecap:round;stroke-linejoin:round;stroke:rgb(0%,0%,0%);stroke-opacity:1;stroke-miterlimit:10;" d="M 30.671875 221.750977 L 39.235352 221.750977 M 50.233398 221.750977 L 53.198242 221.750977 " transform="matrix(1.333333,0,0,1.333333,-9.333333,-232)"/>
<path style="fill:none;stroke-width:1;stroke-linecap:butt;stroke-linejoin:miter;stroke:rgb(0%,0%,0%);stroke-opacity:1;stroke-miterlimit:10;" d="M 57.200195 221.750977 L 53.198242 221.750977 M 53.198242 220.250977 L 57.200195 221.750977 L 53.198242 223.250977 " transform="matrix(1.333333,0,0,1.333333,-9.333333,-232)"/>
<path style="fill:none;stroke-width:1;stroke-linecap:round;stroke-linejoin:round;stroke:rgb(0%,0%,0%);stroke-opacity:1;stroke-miterlimit:10;" d="M 30.671875 185.750977 L 53.198242 185.750977 " transform="matrix(1.333333,0,0,1.333333,-9.333333,-232)"/>
<path style="fill:none;stroke-width:1;stroke-linecap:butt;stroke-linejoin:miter;stroke:rgb(0%,0%,0%);stroke-opacity:1;stroke-miterlimit:10;" d="M 57.200195 185.750977 L 53.198242 185.750977 M 53.198242 184.250977 L 57.200195 185.750977 L 53.198242 187.250977 " transform="matrix(1.333333,0,0,1.333333,-9.333333,-232)"/>
<path style="fill:none;stroke-width:1;stroke-linecap:round;stroke-linejoin:round;stroke:rgb(0%,0%,0%);stroke-opacity:1;stroke-miterlimit:10;" d="M 128.526367 185.750977 L 151.055664 185.750977 " transform="matrix(1.333333,0,0,1.333333,-9.333333,-232)"/>
<path style="fill:none;stroke-width:1;stroke-linecap:butt;stroke-linejoin:miter;stroke:rgb(0%,0%,0%);stroke-opacity:1;stroke-miterlimit:10;" d="M 155.054688 185.750977 L 151.055664 185.750977 M 151.055664 184.250977 L 155.054688 185.750977 L 151.055664 187.250977 " transform="matrix(1.333333,0,0,1.333333,-9.333333,-232)"/>
<path style="fill:none;stroke-width:1;stroke-linecap:round;stroke-linejoin:round;stroke:rgb(0%,0%,0%);stroke-opacity:1;stroke-miterlimit:10;" d="M 286.038086 248.334961 L 267.414062 232.754883 " transform="matrix(1.333333,0,0,1.333333,-9.333333,-232)"/>
<path style="fill:none;stroke-width:1;stroke-linecap:butt;stroke-linejoin:miter;stroke:rgb(0%,0%,0%);stroke-opacity:1;stroke-miterlimit:10;" d="M 264.34668 230.188477 L 267.414062 232.754883 M 266.453125 233.90625 L 264.34668 230.188477 L 268.37793 231.606445 " transform="matrix(1.333333,0,0,1.333333,-9.333333,-232)"/>
<path style="fill:none;stroke-width:1;stroke-linecap:round;stroke-linejoin:round;stroke:rgb(0%,0%,0%);stroke-opacity:1;stroke-miterlimit:10;" d="M 286.038086 221.750977 L 271.410156 221.750977 " transform="matrix(1.333333,0,0,1.333333,-9.333333,-232)"/>
<path style="fill:none;stroke-width:1;stroke-linecap:butt;stroke-linejoin:miter;stroke:rgb(0%,0%,0%);stroke-opacity:1;stroke-miterlimit:10;" d="M 267.411133 221.750977 L 271.410156 221.750977 M 271.410156 223.250977 L 267.411133 221.750977 L 271.410156 220.250977 " transform="matrix(1.333333,0,0,1.333333,-9.333333,-232)"/>
<path style="fill:none;stroke-width:1;stroke-linecap:round;stroke-linejoin:round;stroke:rgb(0%,0%,0%);stroke-opacity:1;stroke-miterlimit:10;" d="M 285.739258 195.231445 L 267.375977 210.700195 " transform="matrix(1.333333,0,0,1.333333,-9.333333,-232)"/>
<path style="fill:none;stroke-width:1;stroke-linecap:butt;stroke-linejoin:miter;stroke:rgb(0%,0%,0%);stroke-opacity:1;stroke-miterlimit:10;" d="M 264.317383 213.27832 L 267.375977 210.700195 M 268.342773 211.848633 L 264.317383 213.27832 L 266.40918 209.551758 " transform="matrix(1.333333,0,0,1.333333,-9.333333,-232)"/>
<path style="fill:none;stroke-width:1;stroke-linecap:round;stroke-linejoin:round;stroke:rgb(0%,0%,0%);stroke-opacity:1;stroke-miterlimit:10;" d="M 222.282227 248.381836 L 241.082031 232.725586 " transform="matrix(1.333333,0,0,1.333333,-9.333333,-232)"/>
<path style="fill:none;stroke-width:1;stroke-linecap:butt;stroke-linejoin:miter;stroke:rgb(0%,0%,0%);stroke-opacity:1;stroke-miterlimit:10;" d="M 244.155273 230.165039 L 241.082031 232.725586 M 240.121094 231.574219 L 244.155273 230.165039 L 242.042969 233.879883 " transform="matrix(1.333333,0,0,1.333333,-9.333333,-232)"/>
<path style="fill:none;stroke-width:1;stroke-linecap:round;stroke-linejoin:round;stroke:rgb(0%,0%,0%);stroke-opacity:1;stroke-miterlimit:10;" d="M 222.484375 221.750977 L 237.109375 221.750977 " transform="matrix(1.333333,0,0,1.333333,-9.333333,-232)"/>
<path style="fill:none;stroke-width:1;stroke-linecap:butt;stroke-linejoin:miter;stroke:rgb(0%,0%,0%);stroke-opacity:1;stroke-miterlimit:10;" d="M 241.108398 221.750977 L 237.109375 221.750977 M 237.109375 220.250977 L 241.108398 221.750977 L 237.109375 223.250977 " transform="matrix(1.333333,0,0,1.333333,-9.333333,-232)"/>
<path style="fill:none;stroke-width:1;stroke-linecap:round;stroke-linejoin:round;stroke:rgb(0%,0%,0%);stroke-opacity:1;stroke-miterlimit:10;" d="M 222.381836 195.140625 L 241.09375 210.758789 " transform="matrix(1.333333,0,0,1.333333,-9.333333,-232)"/>
<path style="fill:none;stroke-width:1;stroke-linecap:butt;stroke-linejoin:miter;stroke:rgb(0%,0%,0%);stroke-opacity:1;stroke-miterlimit:10;" d="M 244.164062 213.325195 L 241.09375 210.758789 M 242.054688 209.610352 L 244.164062 213.325195 L 240.132812 211.910156 " transform="matrix(1.333333,0,0,1.333333,-9.333333,-232)"/>
<path style="fill:none;stroke-width:1;stroke-linecap:round;stroke-linejoin:round;stroke:rgb(0%,0%,0%);stroke-opacity:1;stroke-miterlimit:10;" d="M 105.926758 285.120117 L 83.860352 268.186523 " transform="matrix(1.333333,0,0,1.333333,-9.333333,-232)"/>
<path style="fill:none;stroke-width:1;stroke-linecap:butt;stroke-linejoin:miter;stroke:rgb(0%,0%,0%);stroke-opacity:1;stroke-miterlimit:10;" d="M 80.68457 265.754883 L 83.860352 268.186523 M 82.946289 269.378906 L 80.68457 265.754883 L 84.768555 267 " transform="matrix(1.333333,0,0,1.333333,-9.333333,-232)"/>
<path style="fill:none;stroke-width:1;stroke-linecap:round;stroke-linejoin:round;stroke:rgb(0%,0%,0%);stroke-opacity:1;stroke-miterlimit:10;" d="M 81.499023 257.750977 L 100.026367 257.750977 " transform="matrix(1.333333,0,0,1.333333,-9.333333,-232)"/>
<path style="fill:none;stroke-width:1;stroke-linecap:butt;stroke-linejoin:miter;stroke:rgb(0%,0%,0%);stroke-opacity:1;stroke-miterlimit:10;" d="M 104.02832 257.750977 L 100.026367 257.750977 M 100.026367 256.250977 L 104.02832 257.750977 L 100.026367 259.250977 " transform="matrix(1.333333,0,0,1.333333,-9.333333,-232)"/>
<path style="fill:none;stroke-width:1;stroke-linecap:round;stroke-linejoin:round;stroke:rgb(0%,0%,0%);stroke-opacity:1;stroke-miterlimit:10;" d="M 105.926758 213.102539 L 83.948242 196.204102 " transform="matrix(1.333333,0,0,1.333333,-9.333333,-232)"/>
<path style="fill:none;stroke-width:1;stroke-linecap:butt;stroke-linejoin:miter;stroke:rgb(0%,0%,0%);stroke-opacity:1;stroke-miterlimit:10;" d="M 80.77832 193.766602 L 83.948242 196.204102 M 83.03418 197.393555 L 80.77832 193.766602 L 84.862305 195.014648 " transform="matrix(1.333333,0,0,1.333333,-9.333333,-232)"/>
<path style="fill:none;stroke-width:1;stroke-linecap:round;stroke-linejoin:round;stroke:rgb(0%,0%,0%);stroke-opacity:1;stroke-miterlimit:10;" d="M 55.47168 282.500977 C 47.291992 274.511719 38.78418 262.382812 38.78418 246.500977 C 38.78418 228.292969 49.960938 210.243164 59.016602 198.609375 " transform="matrix(1.333333,0,0,1.333333,-9.333333,-232)"/>
<path style="fill:none;stroke-width:1;stroke-linecap:butt;stroke-linejoin:miter;stroke:rgb(0%,0%,0%);stroke-opacity:1;stroke-miterlimit:10;" d="M 61.536133 195.503906 L 59.016602 198.609375 M 57.847656 197.663086 L 61.536133 195.503906 L 60.179688 199.555664 " transform="matrix(1.333333,0,0,1.333333,-9.333333,-232)"/>
<path style="fill:none;stroke-width:1;stroke-linecap:round;stroke-linejoin:round;stroke:rgb(0%,0%,0%);stroke-opacity:1;stroke-miterlimit:10;" d="M 81.601562 185.750977 L 100.128906 185.750977 " transform="matrix(1.333333,0,0,1.333333,-9.333333,-232)"/>
<path style="fill:none;stroke-width:1;stroke-linecap:butt;stroke-linejoin:miter;stroke:rgb(0%,0%,0%);stroke-opacity:1;stroke-miterlimit:10;" d="M 104.12793 185.750977 L 100.128906 185.750977 M 100.128906 184.250977 L 104.12793 185.750977 L 100.128906 187.250977 " transform="matrix(1.333333,0,0,1.333333,-9.333333,-232)"/>
<path style="fill:none;stroke-width:1;stroke-linecap:round;stroke-linejoin:round;stroke:rgb(0%,0%,0%);stroke-opacity:1;stroke-miterlimit:10;" d="M 70.319336 282.500977 L 70.295898 274.898438 " transform="matrix(1.333333,0,0,1.333333,-9.333333,-232)"/>
<path style="fill:none;stroke-width:1;stroke-linecap:butt;stroke-linejoin:miter;stroke:rgb(0%,0%,0%);stroke-opacity:1;stroke-miterlimit:10;" d="M 70.28418 270.899414 L 70.295898 274.898438 M 68.795898 274.901367 L 70.28418 270.899414 L 71.795898 274.895508 " transform="matrix(1.333333,0,0,1.333333,-9.333333,-232)"/>
<path style="fill:none;stroke-width:1;stroke-linecap:round;stroke-linejoin:round;stroke:rgb(0%,0%,0%);stroke-opacity:1;stroke-miterlimit:10;" d="M 154.208008 283.417969 C 145.700195 275.452148 136.459961 263.003906 136.459961 246.500977 C 136.459961 228.27832 147.72168 210.210938 156.833008 198.577148 " transform="matrix(1.333333,0,0,1.333333,-9.333333,-232)"/>
<path style="fill:none;stroke-width:1;stroke-linecap:butt;stroke-linejoin:miter;stroke:rgb(0%,0%,0%);stroke-opacity:1;stroke-miterlimit:10;" d="M 159.364258 195.477539 L 156.833008 198.577148 M 155.672852 197.62793 L 159.364258 195.477539 L 157.996094 199.523438 " transform="matrix(1.333333,0,0,1.333333,-9.333333,-232)"/>
<path style="fill:none;stroke-width:1;stroke-linecap:round;stroke-linejoin:round;stroke:rgb(0%,0%,0%);stroke-opacity:1;stroke-miterlimit:10;" d="M 168.176758 282.500977 L 168.15332 274.898438 " transform="matrix(1.333333,0,0,1.333333,-9.333333,-232)"/>
<path style="fill:none;stroke-width:1;stroke-linecap:butt;stroke-linejoin:miter;stroke:rgb(0%,0%,0%);stroke-opacity:1;stroke-miterlimit:10;" d="M 168.141602 270.899414 L 168.15332 274.898438 M 166.65332 274.901367 L 168.141602 270.899414 L 169.65332 274.895508 " transform="matrix(1.333333,0,0,1.333333,-9.333333,-232)"/>
<path style="fill-rule:nonzero;fill:rgb(69.803923%,85.09804%,100%);fill-opacity:1;stroke-width:1;stroke-linecap:round;stroke-linejoin:round;stroke:rgb(0%,0%,0%);stroke-opacity:1;stroke-miterlimit:10;" d="M 78.203125 249.796875 C 82.597656 254.188477 82.597656 261.313477 78.203125 265.702148 C 73.811523 270.09668 66.686523 270.09668 62.297852 265.702148 C 57.90332 261.313477 57.90332 254.188477 62.297852 249.796875 C 66.686523 245.402344 73.811523 245.402344 78.203125 249.796875 " transform="matrix(1.333333,0,0,1.333333,-9.333333,-232)"/>
<path style="fill:none;stroke-width:1;stroke-linecap:round;stroke-linejoin:round;stroke:rgb(0%,0%,0%);stroke-opacity:1;stroke-miterlimit:10;" d="M 81.601562 221.750977 L 100.026367 221.750977 " transform="matrix(1.333333,0,0,1.333333,-9.333333,-232)"/>
<path style="fill:none;stroke-width:1;stroke-linecap:butt;stroke-linejoin:miter;stroke:rgb(0%,0%,0%);stroke-opacity:1;stroke-miterlimit:10;" d="M 104.02832 221.750977 L 100.026367 221.750977 M 100.026367 220.250977 L 104.02832 221.750977 L 100.026367 223.250977 " transform="matrix(1.333333,0,0,1.333333,-9.333333,-232)"/>
<path style="fill-rule:nonzero;fill:rgb(69.803923%,85.09804%,100%);fill-opacity:1;stroke-width:1;stroke-linecap:round;stroke-linejoin:round;stroke:rgb(0%,0%,0%);stroke-opacity:1;stroke-miterlimit:10;" d="M 78.305664 177.796875 C 82.700195 182.188477 82.700195 189.313477 78.305664 193.702148 C 73.911133 198.09668 66.789062 198.09668 62.394531 193.702148 C 58 189.313477 58 182.188477 62.394531 177.796875 C 66.789062 173.402344 73.911133 173.402344 78.305664 177.796875 " transform="matrix(1.333333,0,0,1.333333,-9.333333,-232)"/>
<path style="fill-rule:nonzero;fill:rgb(69.803923%,85.09804%,100%);fill-opacity:1;stroke-width:1;stroke-linecap:round;stroke-linejoin:round;stroke:rgb(0%,0%,0%);stroke-opacity:1;stroke-miterlimit:10;" d="M 78.305664 213.796875 C 82.700195 218.188477 82.700195 225.313477 78.305664 229.702148 C 73.911133 234.09668 66.789062 234.09668 62.394531 229.702148 C 58 225.313477 58 218.188477 62.394531 213.796875 C 66.789062 209.402344 73.911133 209.402344 78.305664 213.796875 " transform="matrix(1.333333,0,0,1.333333,-9.333333,-232)"/>
<path style="fill:none;stroke-width:1;stroke-linecap:round;stroke-linejoin:round;stroke:rgb(0%,0%,0%);stroke-opacity:1;stroke-miterlimit:10;" d="M 105.926758 249.102539 L 83.948242 232.204102 " transform="matrix(1.333333,0,0,1.333333,-9.333333,-232)"/>
<path style="fill:none;stroke-width:1;stroke-linecap:butt;stroke-linejoin:miter;stroke:rgb(0%,0%,0%);stroke-opacity:1;stroke-miterlimit:10;" d="M 80.77832 229.766602 L 83.948242 232.204102 M 83.03418 233.393555 L 80.77832 229.766602 L 84.862305 231.014648 " transform="matrix(1.333333,0,0,1.333333,-9.333333,-232)"/>
<path style="fill-rule:nonzero;fill:rgb(69.803923%,85.09804%,100%);fill-opacity:1;stroke-width:1;stroke-linecap:round;stroke-linejoin:round;stroke:rgb(0%,0%,0%);stroke-opacity:1;stroke-miterlimit:10;" d="M 176.057617 249.796875 C 180.452148 254.188477 180.452148 261.313477 176.057617 265.702148 C 171.668945 270.09668 164.543945 270.09668 160.149414 265.702148 C 155.757812 261.313477 155.757812 254.188477 160.149414 249.796875 C 164.543945 245.402344 171.668945 245.402344 176.057617 249.796875 " transform="matrix(1.333333,0,0,1.333333,-9.333333,-232)"/>
<path style="fill:none;stroke-width:1;stroke-linecap:round;stroke-linejoin:round;stroke:rgb(0%,0%,0%);stroke-opacity:1;stroke-miterlimit:10;" d="M 179.356445 257.750977 L 193.881836 257.750977 " transform="matrix(1.333333,0,0,1.333333,-9.333333,-232)"/>
<path style="fill:none;stroke-width:1;stroke-linecap:butt;stroke-linejoin:miter;stroke:rgb(0%,0%,0%);stroke-opacity:1;stroke-miterlimit:10;" d="M 197.883789 257.750977 L 193.881836 257.750977 M 193.881836 256.250977 L 197.883789 257.750977 L 193.881836 259.250977 " transform="matrix(1.333333,0,0,1.333333,-9.333333,-232)"/>
<path style="fill-rule:nonzero;fill:rgb(69.803923%,85.09804%,100%);fill-opacity:1;stroke-width:1;stroke-linecap:round;stroke-linejoin:round;stroke:rgb(0%,0%,0%);stroke-opacity:1;stroke-miterlimit:10;" d="M 176.160156 213.796875 C 180.554688 218.188477 180.554688 225.313477 176.160156 229.702148 C 171.765625 234.09668 164.643555 234.09668 160.249023 229.702148 C 155.854492 225.313477 155.854492 218.188477 160.249023 213.796875 C 164.643555 209.402344 171.765625 209.402344 176.160156 213.796875 " transform="matrix(1.333333,0,0,1.333333,-9.333333,-232)"/>
<path style="fill:none;stroke-width:1;stroke-linecap:round;stroke-linejoin:round;stroke:rgb(0%,0%,0%);stroke-opacity:1;stroke-miterlimit:10;" d="M 179.456055 221.750977 L 194.081055 221.750977 " transform="matrix(1.333333,0,0,1.333333,-9.333333,-232)"/>
<path style="fill:none;stroke-width:1;stroke-linecap:butt;stroke-linejoin:miter;stroke:rgb(0%,0%,0%);stroke-opacity:1;stroke-miterlimit:10;" d="M 198.083008 221.750977 L 194.081055 221.750977 M 194.081055 220.250977 L 198.083008 221.750977 L 194.081055 223.250977 " transform="matrix(1.333333,0,0,1.333333,-9.333333,-232)"/>
<path style="fill-rule:nonzero;fill:rgb(69.803923%,85.09804%,100%);fill-opacity:1;stroke-width:1;stroke-linecap:round;stroke-linejoin:round;stroke:rgb(0%,0%,0%);stroke-opacity:1;stroke-miterlimit:10;" d="M 176.160156 177.796875 C 180.554688 182.188477 180.554688 189.313477 176.160156 193.702148 C 171.765625 198.09668 164.643555 198.09668 160.249023 193.702148 C 155.854492 189.313477 155.854492 182.188477 160.249023 177.796875 C 164.643555 173.402344 171.765625 173.402344 176.160156 177.796875 " transform="matrix(1.333333,0,0,1.333333,-9.333333,-232)"/>
<path style="fill:none;stroke-width:1;stroke-linecap:round;stroke-linejoin:round;stroke:rgb(0%,0%,0%);stroke-opacity:1;stroke-miterlimit:10;" d="M 179.456055 185.750977 L 193.984375 185.750977 " transform="matrix(1.333333,0,0,1.333333,-9.333333,-232)"/>
<path style="fill:none;stroke-width:1;stroke-linecap:butt;stroke-linejoin:miter;stroke:rgb(0%,0%,0%);stroke-opacity:1;stroke-miterlimit:10;" d="M 197.983398 185.750977 L 193.984375 185.750977 M 193.984375 184.250977 L 197.983398 185.750977 L 193.984375 187.250977 " transform="matrix(1.333333,0,0,1.333333,-9.333333,-232)"/>
<path style="fill:none;stroke-width:1;stroke-linecap:round;stroke-linejoin:round;stroke:rgb(0%,0%,0%);stroke-opacity:1;stroke-miterlimit:10;" d="M 242.807617 174.500977 L 265.307617 174.500977 L 265.307617 197.000977 L 242.807617 197.000977 Z M 242.807617 174.500977 " transform="matrix(1.333333,0,0,1.333333,-9.333333,-232)"/>
<path style=" stroke:none;fill-rule:nonzero;fill:rgb(0%,0%,0%);fill-opacity:1;" d="M 332.785156 16.832031 L 332.535156 16.769531 C 332.203125 17.457031 331.953125 17.855469 331.558594 18.105469 C 330.972656 18.5 330.597656 18.5625 329.410156 18.5625 C 328.410156 18.5625 328.140625 18.457031 328.140625 18.082031 C 328.140625 17.917969 328.183594 17.707031 328.265625 17.4375 L 329.703125 12.269531 C 329.890625 11.605469 330.203125 11.394531 330.910156 11.355469 L 330.910156 11.167969 L 327.640625 11.167969 L 327.640625 11.355469 C 328.390625 11.394531 328.558594 11.519531 328.558594 11.875 C 328.558594 12.042969 328.535156 12.292969 328.433594 12.625 L 326.972656 17.875 C 326.746094 18.625 326.660156 18.730469 325.972656 18.8125 L 325.972656 19 L 332.097656 19 Z M 332.785156 16.832031 "/>
<path style="fill:none;stroke-width:1;stroke-linecap:round;stroke-linejoin:round;stroke:rgb(0%,0%,0%);stroke-opacity:1;stroke-miterlimit:10;" d="M 254.198242 210.500977 L 254.157227 202.898438 " transform="matrix(1.333333,0,0,1.333333,-9.333333,-232)"/>
<path style="fill:none;stroke-width:1;stroke-linecap:butt;stroke-linejoin:miter;stroke:rgb(0%,0%,0%);stroke-opacity:1;stroke-miterlimit:10;" d="M 254.133789 198.899414 L 254.157227 202.898438 M 252.657227 202.907227 L 254.133789 198.899414 L 255.657227 202.889648 " transform="matrix(1.333333,0,0,1.333333,-9.333333,-232)"/>
<path style="fill:none;stroke-width:1;stroke-linecap:round;stroke-linejoin:round;stroke:rgb(0%,0%,0%);stroke-opacity:1;stroke-miterlimit:10;" d="M 59.086914 282.500977 C 53.21582 275.399414 47.250977 265.625977 47.250977 255.257812 C 47.250977 246.046875 51.961914 238.321289 57.129883 232.617188 " transform="matrix(1.333333,0,0,1.333333,-9.333333,-232)"/>
<path style="fill:none;stroke-width:1;stroke-linecap:butt;stroke-linejoin:miter;stroke:rgb(0%,0%,0%);stroke-opacity:1;stroke-miterlimit:10;" d="M 59.96875 229.801758 L 57.129883 232.617188 M 56.075195 231.550781 L 59.96875 229.801758 L 58.1875 233.680664 " transform="matrix(1.333333,0,0,1.333333,-9.333333,-232)"/>
<path style="fill:none;stroke-width:1;stroke-linecap:round;stroke-linejoin:round;stroke:rgb(0%,0%,0%);stroke-opacity:1;stroke-miterlimit:10;" d="M 156.15625 282.500977 C 150.299805 275.733398 144.507812 266.493164 144.507812 256.40918 C 144.507812 246.93457 149.620117 238.78125 155.101562 232.769531 " transform="matrix(1.333333,0,0,1.333333,-9.333333,-232)"/>
<path style="fill:none;stroke-width:1;stroke-linecap:butt;stroke-linejoin:miter;stroke:rgb(0%,0%,0%);stroke-opacity:1;stroke-miterlimit:10;" d="M 157.93457 229.942383 L 155.101562 232.766602 M 154.043945 231.703125 L 157.93457 229.942383 L 156.15918 233.827148 " transform="matrix(1.333333,0,0,1.333333,-9.333333,-232)"/>
</g>
</svg>
